<svg width="15" height="8" viewBox="0 0 15 8" fill="none" xmlns="http://www.w3.org/2000/svg">
<path fill-rule="evenodd" clip-rule="evenodd" d="M0.210844 0.263901C-0.0699635 0.555509 -0.0699635 1.02712 0.210844 1.31801L6.16109 7.48354C6.29225 7.62156 6.45011 7.73145 6.62507 7.80654C6.80004 7.88164 6.98844 7.92036 7.17884 7.92036C7.36923 7.92036 7.55764 7.88164 7.7326 7.80654C7.90757 7.73145 8.06543 7.62156 8.19659 7.48354L14.1908 1.27337C14.3247 1.13243 14.4 0.945783 14.4013 0.751339C14.4027 0.556895 14.33 0.369231 14.198 0.22646C14.1328 0.155734 14.0537 0.0991437 13.9658 0.0601937C13.8779 0.0212438 13.7828 0.00076339 13.6867 2.09071e-05C13.5905 -0.000721575 13.4952 0.0182896 13.4066 0.0558773C13.3181 0.0934649 13.2382 0.148829 13.1719 0.21854L7.68753 5.90238C7.62195 5.97144 7.543 6.02644 7.45548 6.06402C7.36797 6.1016 7.27372 6.12098 7.17848 6.12098C7.08324 6.12098 6.98899 6.1016 6.90148 6.06402C6.81396 6.02644 6.73501 5.97144 6.66942 5.90238L1.22823 0.263901C1.16271 0.194858 1.08382 0.139876 0.996365 0.102304C0.908911 0.0647314 0.814723 0.0453551 0.719539 0.0453551C0.624354 0.0453551 0.530166 0.0647314 0.442712 0.102304C0.355257 0.139876 0.276366 0.194858 0.210844 0.263901Z" fill="#EEE9DF"/>
</svg>
