<svg width="53" height="53" viewBox="0 0 53 53" fill="none" xmlns="http://www.w3.org/2000/svg">
<path d="M6.62287 26.4893H26.491V29.8007H6.62287V26.4893ZM3.31152 18.2109H19.8683V21.5223H3.31152V18.2109Z" fill="#796743"/>
<path d="M49.5355 27.4976L44.5685 15.9079C44.4408 15.6101 44.2286 15.3563 43.9582 15.178C43.6877 14.9996 43.3709 14.9046 43.0469 14.9045H38.0799V11.5932C38.0799 11.1541 37.9055 10.7329 37.595 10.4224C37.2845 10.1119 36.8633 9.9375 36.4242 9.9375H9.93341V13.2489H34.7685V34.0375C34.0146 34.4762 33.3547 35.0594 32.8267 35.7539C32.2988 36.4483 31.9133 37.2401 31.6923 38.084H21.288C20.8851 36.5232 19.9267 35.1631 18.5926 34.2584C17.2585 33.3537 15.6402 32.9666 14.0411 33.1697C12.4421 33.3728 10.972 34.1522 9.90639 35.3617C8.84081 36.5711 8.25293 38.1277 8.25293 39.7397C8.25293 41.3516 8.84081 42.9082 9.90639 44.1176C10.972 45.3271 12.4421 46.1065 14.0411 46.3096C15.6402 46.5127 17.2585 46.1256 18.5926 45.2209C19.9267 44.3163 20.8851 42.9561 21.288 41.3953H31.6923C32.0525 42.8163 32.8762 44.0766 34.0331 44.9768C35.1899 45.8771 36.614 46.3659 38.0799 46.3659C39.5458 46.3659 40.9698 45.8771 42.1267 44.9768C43.2836 44.0766 44.1073 42.8163 44.4675 41.3953H48.0139C48.4531 41.3953 48.8742 41.2209 49.1847 40.9104C49.4952 40.5999 49.6696 40.1788 49.6696 39.7397V28.1499C49.6696 27.9256 49.6239 27.7037 49.5355 27.4976ZM14.9004 43.051C14.2455 43.051 13.6053 42.8568 13.0608 42.4929C12.5162 42.1291 12.0918 41.6119 11.8411 41.0069C11.5905 40.4018 11.5249 39.736 11.6527 39.0936C11.7805 38.4513 12.0959 37.8613 12.559 37.3982C13.0221 36.9351 13.6121 36.6197 14.2544 36.4919C14.8968 36.3642 15.5626 36.4297 16.1676 36.6804C16.7727 36.931 17.2899 37.3554 17.6537 37.9C18.0176 38.4445 18.2118 39.0847 18.2118 39.7397C18.2118 40.6179 17.8629 41.4601 17.2419 42.0811C16.6209 42.7021 15.7787 43.051 14.9004 43.051ZM38.0799 18.2159H41.9542L45.5039 26.4943H38.0799V18.2159ZM38.0799 43.051C37.425 43.051 36.7848 42.8568 36.2402 42.4929C35.6957 42.1291 35.2712 41.6119 35.0206 41.0069C34.77 40.4018 34.7044 39.736 34.8322 39.0936C34.9599 38.4513 35.2753 37.8613 35.7384 37.3982C36.2015 36.9351 36.7915 36.6197 37.4339 36.4919C38.0762 36.3642 38.742 36.4297 39.3471 36.6804C39.9522 36.931 40.4693 37.3554 40.8332 37.9C41.197 38.4445 41.3912 39.0847 41.3912 39.7397C41.3912 40.6179 41.0424 41.4601 40.4214 42.0811C39.8004 42.7021 38.9581 43.051 38.0799 43.051ZM46.3583 38.084H44.4675C44.1028 36.6658 43.2778 35.4087 42.1218 34.5098C40.9658 33.6109 39.5442 33.121 38.0799 33.117V29.8056H46.3583V38.084Z" fill="#796743"/>
</svg>
