<svg width="18" height="15" viewBox="0 0 18 15" fill="none" xmlns="http://www.w3.org/2000/svg">
<path fill-rule="evenodd" clip-rule="evenodd" d="M10.2666 14.7806C10.5611 15.0731 11.0375 15.0731 11.3313 14.7806L17.5588 8.58295C17.6982 8.44633 17.8092 8.28191 17.885 8.09967C17.9609 7.91743 18 7.72119 18 7.52288C18 7.32456 17.9609 7.12832 17.885 6.94608C17.8092 6.76385 17.6982 6.59942 17.5588 6.46281L11.2862 0.219371C11.1438 0.0798382 10.9553 0.00141179 10.7589 1.88757e-05C10.5625 -0.00137404 10.3729 0.074371 10.2287 0.211871C10.1573 0.279773 10.1001 0.362075 10.0608 0.453681C10.0215 0.545286 10.0008 0.644246 10 0.74443C9.99927 0.844615 10.0185 0.943891 10.0564 1.03611C10.0944 1.12833 10.1503 1.21154 10.2207 1.28057L15.9617 6.99303C16.0315 7.06134 16.087 7.14358 16.125 7.23473C16.1629 7.32588 16.1825 7.42405 16.1825 7.52325C16.1825 7.62246 16.1629 7.72062 16.125 7.81177C16.087 7.90293 16.0315 7.98516 15.9617 8.05348L10.2666 13.7209C10.1968 13.7892 10.1413 13.8714 10.1033 13.9624C10.0654 14.0535 10.0458 14.1516 10.0458 14.2508C10.0458 14.3499 10.0654 14.448 10.1033 14.5391C10.1413 14.6302 10.1968 14.7124 10.2666 14.7806Z" fill="#796743"/>
<line x1="0.75" y1="-0.75" x2="16.375" y2="-0.75" transform="matrix(-1 0 0 1 17.125 8.5)" stroke="#796743" stroke-width="1.5" stroke-linecap="round"/>
</svg>
