<svg width="18" height="15" viewBox="0 0 18 15" fill="none" xmlns="http://www.w3.org/2000/svg">
<path fill-rule="evenodd" clip-rule="evenodd" d="M7.73345 14.7806C7.4389 15.0731 6.96255 15.0731 6.66874 14.7806L0.441212 8.58295C0.301811 8.44633 0.190811 8.28191 0.114963 8.09967C0.0391135 7.91743 0 7.72119 0 7.52288C0 7.32456 0.0391135 7.12832 0.114963 6.94608C0.190811 6.76385 0.301811 6.59942 0.441212 6.46281L6.71383 0.219371C6.85619 0.0798382 7.04471 0.00141179 7.24111 1.88757e-05C7.43751 -0.00137404 7.62706 0.074371 7.77126 0.211871C7.8427 0.279773 7.89986 0.362075 7.9392 0.453681C7.97854 0.545286 7.99923 0.644246 7.99998 0.74443C8.00073 0.844615 7.98153 0.943891 7.94356 1.03611C7.9056 1.12833 7.84967 1.21154 7.77926 1.28057L2.03827 6.99303C1.96852 7.06134 1.91297 7.14358 1.87501 7.23473C1.83705 7.32588 1.81748 7.42405 1.81748 7.52325C1.81748 7.62246 1.83705 7.72062 1.87501 7.81177C1.91297 7.90293 1.96852 7.98516 2.03827 8.05348L7.73345 13.7209C7.80318 13.7892 7.85872 13.8714 7.89667 13.9624C7.93462 14.0535 7.95419 14.1516 7.95419 14.2508C7.95419 14.3499 7.93462 14.448 7.89667 14.5391C7.85872 14.6302 7.80318 14.7124 7.73345 14.7806Z" fill="#796743"/>
<line x1="1.625" y1="7.75" x2="17.25" y2="7.75" stroke="#796743" stroke-width="1.5" stroke-linecap="round"/>
</svg>
