<svg width="38" height="38" viewBox="0 0 38 38" fill="none" xmlns="http://www.w3.org/2000/svg">
<path d="M35.9397 13.3424C35.029 12.2623 33.716 11.6481 32.297 11.6481H23.7621V5.82406C23.7621 2.60494 21.1572 0 17.7687 0C16.2862 0 14.9519 0.889493 14.3589 2.26609L8.97963 14.8249H5.01928C2.24491 14.8249 0 17.0698 0 19.8441V32.0641C0 34.8173 2.26609 37.0622 5.01928 37.0622H29.5015C31.8099 37.0622 33.7795 35.4103 34.1819 33.123L36.9775 17.2392C37.2104 15.8414 36.8292 14.4225 35.9185 13.3424H35.9397ZM5.01928 33.8854C4.00271 33.8854 3.17676 33.0595 3.17676 32.0641V19.8441C3.17676 18.8276 4.00271 18.0016 5.01928 18.0016H8.429V33.8854H5.01928ZM31.0687 32.5724C30.9416 33.3348 30.2851 33.8854 29.5015 33.8854H11.6269V16.7309L17.2816 3.49443C17.3663 3.30383 17.5569 3.15558 17.9593 3.15558C19.4206 3.15558 20.5854 4.34157 20.5854 5.80288V14.8037H32.297C32.7841 14.8037 33.2077 14.9943 33.5042 15.3543C33.8007 15.7144 33.9278 16.1803 33.8431 16.6674L31.0475 32.5512L31.0687 32.5724Z" fill="#796743"/>
</svg>
