<svg xmlns="http://www.w3.org/2000/svg" width="1512" height="260" viewBox="0 1040 1512 260">
<rect width="1512" height="260" y="1040" fill="#f4f1e6"/>
<circle xmlns="http://www.w3.org/2000/svg" cx="133.803" cy="1118.98" r="28.6971" transform="rotate(-180 133.803 1118.98)" fill="#796743" />

<path xmlns="http://www.w3.org/2000/svg" fill-rule="evenodd" clip-rule="evenodd" d="M138.825 1109.39C138.429 1109.02 137.788 1109.02 137.393 1109.39L129.016 1117.17C128.828 1117.34 128.679 1117.55 128.577 1117.78C128.475 1118.01 128.422 1118.25 128.422 1118.5C128.422 1118.75 128.475 1119 128.577 1119.23C128.679 1119.45 128.828 1119.66 129.016 1119.83L137.453 1127.67C137.645 1127.85 137.899 1127.94 138.163 1127.95C138.427 1127.95 138.682 1127.85 138.876 1127.68C138.972 1127.59 139.049 1127.49 139.102 1127.38C139.155 1127.26 139.183 1127.14 139.184 1127.01C139.185 1126.89 139.159 1126.76 139.108 1126.65C139.057 1126.53 138.981 1126.42 138.887 1126.34L131.164 1119.17C131.07 1119.08 130.995 1118.98 130.944 1118.86C130.893 1118.75 130.867 1118.62 130.867 1118.5C130.867 1118.38 130.893 1118.25 130.944 1118.14C130.995 1118.02 131.07 1117.92 131.164 1117.83L138.825 1110.72C138.919 1110.63 138.994 1110.53 139.045 1110.42C139.096 1110.3 139.122 1110.18 139.122 1110.05C139.122 1109.93 139.096 1109.81 139.045 1109.69C138.994 1109.58 138.919 1109.47 138.825 1109.39Z" fill="#EEE9DF" />

<path xmlns="http://www.w3.org/2000/svg" d="M723.187 1085.82C724.027 1085.82 724.687 1085.66 725.167 1085.34C725.647 1085.02 725.887 1084.54 725.887 1083.9V1083.86C725.887 1083.26 725.647 1082.8 725.167 1082.48C724.7 1082.15 723.98 1081.98 723.007 1081.98H719.107V1085.82H723.187ZM722.467 1079.9C723.267 1079.9 723.907 1079.75 724.387 1079.44C724.867 1079.12 725.107 1078.64 725.107 1078V1077.96C725.107 1077.4 724.893 1076.97 724.467 1076.66C724.053 1076.34 723.447 1076.18 722.647 1076.18H719.107V1079.9H722.467ZM716.687 1074H722.967C724.58 1074 725.8 1074.41 726.627 1075.24C727.253 1075.87 727.567 1076.64 727.567 1077.56V1077.6C727.567 1078.03 727.507 1078.41 727.387 1078.74C727.28 1079.06 727.133 1079.35 726.947 1079.6C726.773 1079.84 726.56 1080.05 726.307 1080.24C726.067 1080.43 725.82 1080.59 725.567 1080.72C725.98 1080.87 726.353 1081.04 726.687 1081.24C727.033 1081.43 727.327 1081.65 727.567 1081.92C727.82 1082.19 728.013 1082.5 728.147 1082.86C728.28 1083.22 728.347 1083.64 728.347 1084.12V1084.16C728.347 1084.79 728.22 1085.34 727.967 1085.82C727.727 1086.3 727.38 1086.7 726.927 1087.02C726.473 1087.34 725.927 1087.59 725.287 1087.76C724.647 1087.92 723.94 1088 723.167 1088H716.687V1074ZM737.84 1085.98C738.534 1085.98 739.167 1085.85 739.74 1085.6C740.327 1085.33 740.827 1084.98 741.24 1084.54C741.654 1084.09 741.974 1083.56 742.2 1082.96C742.44 1082.36 742.56 1081.72 742.56 1081.04V1081C742.56 1080.32 742.44 1079.68 742.2 1079.08C741.974 1078.47 741.647 1077.94 741.22 1077.5C740.807 1077.05 740.307 1076.69 739.72 1076.42C739.134 1076.15 738.494 1076.02 737.8 1076.02C737.107 1076.02 736.467 1076.15 735.88 1076.42C735.307 1076.67 734.814 1077.03 734.4 1077.48C733.987 1077.92 733.66 1078.44 733.42 1079.04C733.194 1079.64 733.08 1080.28 733.08 1080.96V1081C733.08 1081.68 733.194 1082.33 733.42 1082.94C733.66 1083.54 733.987 1084.07 734.4 1084.52C734.827 1084.96 735.334 1085.31 735.92 1085.58C736.507 1085.85 737.147 1085.98 737.84 1085.98ZM737.8 1088.24C736.72 1088.24 735.734 1088.05 734.84 1087.68C733.947 1087.29 733.18 1086.77 732.54 1086.12C731.9 1085.47 731.4 1084.71 731.04 1083.84C730.68 1082.96 730.5 1082.03 730.5 1081.04V1081C730.5 1080.01 730.68 1079.09 731.04 1078.22C731.4 1077.34 731.907 1076.57 732.56 1075.92C733.214 1075.25 733.987 1074.73 734.88 1074.34C735.774 1073.95 736.76 1073.76 737.84 1073.76C738.92 1073.76 739.907 1073.95 740.8 1074.34C741.694 1074.71 742.46 1075.23 743.1 1075.88C743.74 1076.53 744.24 1077.3 744.6 1078.18C744.96 1079.05 745.14 1079.97 745.14 1080.96V1081C745.14 1081.99 744.96 1082.92 744.6 1083.8C744.24 1084.67 743.734 1085.43 743.08 1086.1C742.427 1086.75 741.654 1087.27 740.76 1087.66C739.867 1088.05 738.88 1088.24 737.8 1088.24ZM751.553 1076.28H747.113V1074H758.473V1076.28H754.033V1088H751.553V1076.28ZM761.221 1074H763.681V1088H761.221V1074ZM774.069 1088.24C772.976 1088.24 771.982 1088.06 771.089 1087.7C770.196 1087.33 769.429 1086.82 768.789 1086.18C768.162 1085.53 767.676 1084.77 767.329 1083.9C766.982 1083.02 766.809 1082.07 766.809 1081.04V1081C766.809 1080.03 766.982 1079.1 767.329 1078.22C767.689 1077.34 768.189 1076.57 768.829 1075.92C769.469 1075.25 770.229 1074.73 771.109 1074.34C772.002 1073.95 772.976 1073.76 774.029 1073.76C774.642 1073.76 775.196 1073.81 775.689 1073.9C776.196 1073.98 776.662 1074.1 777.089 1074.26C777.516 1074.42 777.916 1074.62 778.289 1074.86C778.676 1075.09 779.049 1075.35 779.409 1075.66L777.849 1077.52C777.582 1077.29 777.309 1077.09 777.029 1076.9C776.749 1076.71 776.456 1076.56 776.149 1076.44C775.842 1076.31 775.502 1076.21 775.129 1076.14C774.769 1076.06 774.369 1076.02 773.929 1076.02C773.289 1076.02 772.689 1076.15 772.129 1076.42C771.582 1076.69 771.102 1077.05 770.689 1077.5C770.289 1077.94 769.969 1078.46 769.729 1079.06C769.502 1079.66 769.389 1080.29 769.389 1080.96V1081C769.389 1081.72 769.502 1082.39 769.729 1083C769.956 1083.61 770.276 1084.14 770.689 1084.58C771.116 1085.02 771.616 1085.37 772.189 1085.62C772.776 1085.87 773.429 1086 774.149 1086C774.816 1086 775.436 1085.91 776.009 1085.72C776.596 1085.52 777.102 1085.26 777.529 1084.94V1082.32H773.949V1080.18H779.909V1086.06C779.562 1086.35 779.176 1086.63 778.749 1086.9C778.336 1087.17 777.882 1087.4 777.389 1087.6C776.909 1087.8 776.389 1087.95 775.829 1088.06C775.269 1088.18 774.682 1088.24 774.069 1088.24ZM791.592 1082.44L789.173 1076.84L786.773 1082.44H791.592ZM788.073 1073.9H790.353L796.513 1088H793.913L792.493 1084.62H785.873L784.433 1088H781.913L788.073 1073.9Z" fill="#796743" />

<path xmlns="http://www.w3.org/2000/svg" d="M538.881 1122.53C538.836 1122.31 538.734 1122.13 538.575 1121.99C538.439 1121.83 538.201 1121.75 537.861 1121.75H531.537V1124.91H542.451C542.633 1124.91 542.769 1124.86 542.859 1124.74C542.95 1124.61 543.018 1124.32 543.063 1123.89H543.471V1129.71H543.063C543.018 1129.41 542.95 1129.23 542.859 1129.16C542.769 1129.1 542.633 1129.06 542.451 1129.06H525.485V1128.65C525.916 1128.61 526.177 1128.54 526.267 1128.45C526.381 1128.34 526.437 1128.2 526.437 1128.04V1112.2C526.437 1112.04 526.381 1111.91 526.267 1111.82C526.177 1111.71 525.916 1111.63 525.485 1111.59V1111.18H542.451C542.633 1111.18 542.769 1111.12 542.859 1111.01C542.95 1110.87 543.018 1110.61 543.063 1110.23H543.471V1116.14H543.063C543.018 1115.76 542.95 1115.51 542.859 1115.39C542.769 1115.26 542.633 1115.19 542.451 1115.19H531.537V1118.01H537.861C538.201 1118.01 538.439 1117.94 538.575 1117.81C538.734 1117.65 538.836 1117.46 538.881 1117.23H539.289V1122.53H538.881ZM565.911 1124.91C566.093 1124.91 566.229 1124.86 566.319 1124.74C566.41 1124.61 566.478 1124.35 566.523 1123.96H566.931V1129.84H566.523C566.478 1129.48 566.41 1129.25 566.319 1129.16C566.229 1129.1 566.093 1129.06 565.911 1129.06H548.163V1128.65C548.594 1128.61 548.855 1128.54 548.945 1128.45C549.059 1128.34 549.115 1128.2 549.115 1128.04V1112.2C549.115 1112.04 549.059 1111.91 548.945 1111.82C548.855 1111.71 548.594 1111.63 548.163 1111.59V1111.18H555.167V1111.59C554.737 1111.63 554.465 1111.71 554.351 1111.82C554.261 1111.91 554.215 1112.04 554.215 1112.2V1124.91H565.911ZM572.337 1122.16C572.292 1122.3 572.269 1122.53 572.269 1122.87C572.269 1123.1 572.473 1123.36 572.881 1123.66C573.312 1123.93 573.856 1124.19 574.513 1124.44C575.193 1124.69 575.964 1124.9 576.825 1125.08C577.686 1125.24 578.559 1125.32 579.443 1125.32C581.143 1125.32 582.39 1125.13 583.183 1124.74C583.976 1124.34 584.373 1123.76 584.373 1123.01C584.373 1122.6 584.022 1122.32 583.319 1122.16C582.639 1121.98 581.778 1121.84 580.735 1121.75C579.692 1121.64 578.57 1121.52 577.369 1121.41C576.168 1121.28 575.046 1121.05 574.003 1120.73C572.96 1120.39 572.088 1119.92 571.385 1119.3C570.705 1118.67 570.365 1117.81 570.365 1116.72C570.365 1115.86 570.558 1115.08 570.943 1114.37C571.351 1113.67 571.906 1113.07 572.609 1112.57C573.334 1112.07 574.207 1111.69 575.227 1111.42C576.247 1111.12 577.38 1110.97 578.627 1110.97C579.783 1110.97 580.86 1111.05 581.857 1111.21C582.854 1111.35 583.738 1111.51 584.509 1111.69C585.28 1111.87 585.926 1112.04 586.447 1112.2C586.968 1112.33 587.342 1112.4 587.569 1112.4C587.796 1112.4 587.977 1112.36 588.113 1112.27C588.249 1112.15 588.374 1112.03 588.487 1111.89L588.861 1112.03L586.515 1116.75L586.107 1116.55V1116.18C586.107 1115.97 585.88 1115.77 585.427 1115.56C584.996 1115.34 584.441 1115.14 583.761 1114.99C583.081 1114.8 582.322 1114.66 581.483 1114.54C580.644 1114.43 579.828 1114.37 579.035 1114.37C577.562 1114.37 576.53 1114.54 575.941 1114.88C575.352 1115.22 575.057 1115.59 575.057 1115.97C575.057 1116.36 575.261 1116.65 575.669 1116.86C576.077 1117.04 576.61 1117.17 577.267 1117.26C577.924 1117.35 578.672 1117.43 579.511 1117.5C580.35 1117.55 581.211 1117.63 582.095 1117.74C582.979 1117.85 583.84 1118.01 584.679 1118.22C585.518 1118.42 586.266 1118.73 586.923 1119.13C587.58 1119.52 588.113 1120.04 588.521 1120.7C588.929 1121.33 589.133 1122.14 589.133 1123.11C589.133 1123.86 588.974 1124.6 588.657 1125.32C588.362 1126.05 587.841 1126.7 587.093 1127.29C586.368 1127.86 585.382 1128.31 584.135 1128.65C582.911 1128.99 581.381 1129.16 579.545 1129.16C578.117 1129.16 576.882 1129.1 575.839 1128.96C574.819 1128.82 573.946 1128.66 573.221 1128.48C572.496 1128.28 571.918 1128.1 571.487 1127.94C571.079 1127.78 570.773 1127.7 570.569 1127.7C570.433 1127.7 570.308 1127.75 570.195 1127.84C570.104 1127.93 570.002 1128.03 569.889 1128.14L569.481 1128.04L571.997 1121.99L572.337 1122.16ZM604.83 1112.2C604.83 1112.04 604.773 1111.91 604.66 1111.82C604.569 1111.71 604.309 1111.63 603.878 1111.59V1111.18H612.072V1111.59C611.687 1111.61 611.426 1111.66 611.29 1111.76C611.177 1111.82 611.12 1111.91 611.12 1112.03C611.12 1112.07 611.267 1112.28 611.562 1112.64C611.857 1113 612.242 1113.46 612.718 1114C613.194 1114.54 613.727 1115.16 614.316 1115.84C614.928 1116.49 615.54 1117.16 616.152 1117.84C616.764 1118.5 617.353 1119.13 617.92 1119.75C618.487 1120.33 618.974 1120.84 619.382 1121.28V1112.2C619.382 1111.81 619.144 1111.61 618.668 1111.59V1111.18H624.89V1111.59C624.459 1111.63 624.187 1111.71 624.074 1111.82C623.983 1111.91 623.938 1112.04 623.938 1112.2V1128.04C623.938 1128.2 623.983 1128.34 624.074 1128.45C624.187 1128.54 624.459 1128.61 624.89 1128.65V1129.06H618.43V1128.65C618.747 1128.65 618.951 1128.62 619.042 1128.55C619.155 1128.48 619.212 1128.39 619.212 1128.28C619.212 1128.21 619.178 1128.13 619.11 1128.04C619.042 1127.93 618.895 1127.75 618.668 1127.5C618.441 1127.25 618.101 1126.9 617.648 1126.44C617.217 1125.97 616.639 1125.34 615.914 1124.57C615.189 1123.78 614.293 1122.81 613.228 1121.65C612.163 1120.47 610.882 1119.04 609.386 1117.37V1128.04C609.386 1128.2 609.431 1128.34 609.522 1128.45C609.635 1128.54 609.907 1128.61 610.338 1128.65V1129.06H603.878V1128.65C604.309 1128.61 604.569 1128.54 604.66 1128.45C604.773 1128.34 604.83 1128.2 604.83 1128.04V1112.2ZM639.861 1110.97C641.312 1110.97 642.672 1111.18 643.941 1111.59C645.233 1111.97 646.355 1112.55 647.307 1113.32C648.282 1114.09 649.052 1115.04 649.619 1116.18C650.186 1117.31 650.469 1118.62 650.469 1120.12C650.469 1121.62 650.186 1122.93 649.619 1124.06C649.052 1125.2 648.282 1126.15 647.307 1126.92C646.355 1127.69 645.233 1128.26 643.941 1128.62C642.672 1128.98 641.312 1129.16 639.861 1129.16C638.41 1129.16 637.039 1128.98 635.747 1128.62C634.478 1128.26 633.356 1127.69 632.381 1126.92C631.429 1126.15 630.67 1125.2 630.103 1124.06C629.536 1122.93 629.253 1121.62 629.253 1120.12C629.253 1118.62 629.536 1117.31 630.103 1116.18C630.67 1115.04 631.429 1114.09 632.381 1113.32C633.356 1112.55 634.478 1111.97 635.747 1111.59C637.039 1111.18 638.41 1110.97 639.861 1110.97ZM639.861 1115.12C639.113 1115.12 638.399 1115.23 637.719 1115.46C637.062 1115.69 636.472 1116.02 635.951 1116.45C635.452 1116.86 635.044 1117.38 634.727 1118.01C634.432 1118.62 634.285 1119.33 634.285 1120.12C634.285 1120.91 634.432 1121.63 634.727 1122.26C635.044 1122.87 635.452 1123.39 635.951 1123.83C636.472 1124.23 637.062 1124.55 637.719 1124.78C638.399 1125 639.113 1125.12 639.861 1125.12C640.609 1125.12 641.312 1125 641.969 1124.78C642.649 1124.55 643.238 1124.23 643.737 1123.83C644.258 1123.39 644.666 1122.87 644.961 1122.26C645.278 1121.63 645.437 1120.91 645.437 1120.12C645.437 1119.33 645.278 1118.62 644.961 1118.01C644.666 1117.38 644.258 1116.86 643.737 1116.45C643.238 1116.02 642.649 1115.69 641.969 1115.46C641.312 1115.23 640.609 1115.12 639.861 1115.12ZM656.374 1122.16C656.329 1122.3 656.306 1122.53 656.306 1122.87C656.306 1123.1 656.51 1123.36 656.918 1123.66C657.349 1123.93 657.893 1124.19 658.55 1124.44C659.23 1124.69 660.001 1124.9 660.862 1125.08C661.723 1125.24 662.596 1125.32 663.48 1125.32C665.18 1125.32 666.427 1125.13 667.22 1124.74C668.013 1124.34 668.41 1123.76 668.41 1123.01C668.41 1122.6 668.059 1122.32 667.356 1122.16C666.676 1121.98 665.815 1121.84 664.772 1121.75C663.729 1121.64 662.607 1121.52 661.406 1121.41C660.205 1121.28 659.083 1121.05 658.04 1120.73C656.997 1120.39 656.125 1119.92 655.422 1119.3C654.742 1118.67 654.402 1117.81 654.402 1116.72C654.402 1115.86 654.595 1115.08 654.98 1114.37C655.388 1113.67 655.943 1113.07 656.646 1112.57C657.371 1112.07 658.244 1111.69 659.264 1111.42C660.284 1111.12 661.417 1110.97 662.664 1110.97C663.82 1110.97 664.897 1111.05 665.894 1111.21C666.891 1111.35 667.775 1111.51 668.546 1111.69C669.317 1111.87 669.963 1112.04 670.484 1112.2C671.005 1112.33 671.379 1112.4 671.606 1112.4C671.833 1112.4 672.014 1112.36 672.15 1112.27C672.286 1112.15 672.411 1112.03 672.524 1111.89L672.898 1112.03L670.552 1116.75L670.144 1116.55V1116.18C670.144 1115.97 669.917 1115.77 669.464 1115.56C669.033 1115.34 668.478 1115.14 667.798 1114.99C667.118 1114.8 666.359 1114.66 665.52 1114.54C664.681 1114.43 663.865 1114.37 663.072 1114.37C661.599 1114.37 660.567 1114.54 659.978 1114.88C659.389 1115.22 659.094 1115.59 659.094 1115.97C659.094 1116.36 659.298 1116.65 659.706 1116.86C660.114 1117.04 660.647 1117.17 661.304 1117.26C661.961 1117.35 662.709 1117.43 663.548 1117.5C664.387 1117.55 665.248 1117.63 666.132 1117.74C667.016 1117.85 667.877 1118.01 668.716 1118.22C669.555 1118.42 670.303 1118.73 670.96 1119.13C671.617 1119.52 672.15 1120.04 672.558 1120.7C672.966 1121.33 673.17 1122.14 673.17 1123.11C673.17 1123.86 673.011 1124.6 672.694 1125.32C672.399 1126.05 671.878 1126.7 671.13 1127.29C670.405 1127.86 669.419 1128.31 668.172 1128.65C666.948 1128.99 665.418 1129.16 663.582 1129.16C662.154 1129.16 660.919 1129.1 659.876 1128.96C658.856 1128.82 657.983 1128.66 657.258 1128.48C656.533 1128.28 655.955 1128.1 655.524 1127.94C655.116 1127.78 654.81 1127.7 654.606 1127.7C654.47 1127.7 654.345 1127.75 654.232 1127.84C654.141 1127.93 654.039 1128.03 653.926 1128.14L653.518 1128.04L656.034 1121.99L656.374 1122.16ZM681.67 1128.65C682.1 1128.61 682.361 1128.54 682.452 1128.45C682.565 1128.34 682.622 1128.2 682.622 1128.04V1115.33H676.774C676.592 1115.33 676.456 1115.39 676.366 1115.53C676.275 1115.64 676.207 1115.89 676.162 1116.28H675.754V1110.23H676.162C676.207 1110.61 676.275 1110.87 676.366 1111.01C676.456 1111.12 676.592 1111.18 676.774 1111.18H693.57C693.751 1111.18 693.887 1111.12 693.978 1111.01C694.068 1110.87 694.136 1110.61 694.182 1110.23H694.59V1116.28H694.182C694.136 1115.89 694.068 1115.64 693.978 1115.53C693.887 1115.39 693.751 1115.33 693.57 1115.33H687.722V1128.04C687.722 1128.2 687.767 1128.34 687.858 1128.45C687.971 1128.54 688.243 1128.61 688.674 1128.65V1129.06H681.67V1128.65ZM710.105 1118.73C711.102 1118.73 711.782 1118.54 712.145 1118.18C712.53 1117.8 712.723 1117.35 712.723 1116.86C712.723 1116.36 712.53 1115.93 712.145 1115.56C711.782 1115.18 711.102 1114.99 710.105 1114.99H704.393V1118.73H710.105ZM704.393 1128.04C704.393 1128.2 704.438 1128.34 704.529 1128.45C704.642 1128.54 704.914 1128.61 705.345 1128.65V1129.06H698.341V1128.65C698.772 1128.61 699.032 1128.54 699.123 1128.45C699.236 1128.34 699.293 1128.2 699.293 1128.04V1112.2C699.293 1112.04 699.236 1111.91 699.123 1111.82C699.032 1111.71 698.772 1111.63 698.341 1111.59V1111.18H710.785C713.301 1111.18 715.126 1111.64 716.259 1112.57C717.392 1113.48 717.959 1114.89 717.959 1116.82C717.959 1118.39 717.494 1119.61 716.565 1120.49C715.658 1121.38 714.502 1122.01 713.097 1122.4L717.109 1128.04C717.381 1128.45 717.71 1128.65 718.095 1128.65V1129.06H711.023V1128.65C711.522 1128.63 711.771 1128.43 711.771 1128.04C711.771 1128 711.68 1127.84 711.499 1127.57C711.318 1127.29 711.091 1126.96 710.819 1126.58C710.547 1126.19 710.241 1125.79 709.901 1125.36C709.584 1124.9 709.266 1124.47 708.949 1124.06C708.654 1123.66 708.394 1123.29 708.167 1122.98C707.94 1122.66 707.793 1122.44 707.725 1122.33H704.393V1128.04ZM736.274 1122.53C736.229 1122.31 736.127 1122.13 735.968 1121.99C735.832 1121.83 735.594 1121.75 735.254 1121.75H728.93V1124.91H739.844C740.025 1124.91 740.161 1124.86 740.252 1124.74C740.343 1124.61 740.411 1124.32 740.456 1123.89H740.864V1129.71H740.456C740.411 1129.41 740.343 1129.23 740.252 1129.16C740.161 1129.1 740.025 1129.06 739.844 1129.06H722.878V1128.65C723.309 1128.61 723.569 1128.54 723.66 1128.45C723.773 1128.34 723.83 1128.2 723.83 1128.04V1112.2C723.83 1112.04 723.773 1111.91 723.66 1111.82C723.569 1111.71 723.309 1111.63 722.878 1111.59V1111.18H739.844C740.025 1111.18 740.161 1111.12 740.252 1111.01C740.343 1110.87 740.411 1110.61 740.456 1110.23H740.864V1116.14H740.456C740.411 1115.76 740.343 1115.51 740.252 1115.39C740.161 1115.26 740.025 1115.19 739.844 1115.19H728.93V1118.01H735.254C735.594 1118.01 735.832 1117.94 735.968 1117.81C736.127 1117.65 736.229 1117.46 736.274 1117.23H736.682V1122.53H736.274ZM747.052 1122.16C747.006 1122.3 746.984 1122.53 746.984 1122.87C746.984 1123.1 747.188 1123.36 747.596 1123.66C748.026 1123.93 748.57 1124.19 749.228 1124.44C749.908 1124.69 750.678 1124.9 751.54 1125.08C752.401 1125.24 753.274 1125.32 754.158 1125.32C755.858 1125.32 757.104 1125.13 757.898 1124.74C758.691 1124.34 759.088 1123.76 759.088 1123.01C759.088 1122.6 758.736 1122.32 758.034 1122.16C757.354 1121.98 756.492 1121.84 755.45 1121.75C754.407 1121.64 753.285 1121.52 752.084 1121.41C750.882 1121.28 749.76 1121.05 748.718 1120.73C747.675 1120.39 746.802 1119.92 746.1 1119.3C745.42 1118.67 745.08 1117.81 745.08 1116.72C745.08 1115.86 745.272 1115.08 745.658 1114.37C746.066 1113.67 746.621 1113.07 747.324 1112.57C748.049 1112.07 748.922 1111.69 749.942 1111.42C750.962 1111.12 752.095 1110.97 753.342 1110.97C754.498 1110.97 755.574 1111.05 756.572 1111.21C757.569 1111.35 758.453 1111.51 759.224 1111.69C759.994 1111.87 760.64 1112.04 761.162 1112.2C761.683 1112.33 762.057 1112.4 762.284 1112.4C762.51 1112.4 762.692 1112.36 762.828 1112.27C762.964 1112.15 763.088 1112.03 763.202 1111.89L763.576 1112.03L761.23 1116.75L760.822 1116.55V1116.18C760.822 1115.97 760.595 1115.77 760.142 1115.56C759.711 1115.34 759.156 1115.14 758.476 1114.99C757.796 1114.8 757.036 1114.66 756.198 1114.54C755.359 1114.43 754.543 1114.37 753.75 1114.37C752.276 1114.37 751.245 1114.54 750.656 1114.88C750.066 1115.22 749.772 1115.59 749.772 1115.97C749.772 1116.36 749.976 1116.65 750.384 1116.86C750.792 1117.04 751.324 1117.17 751.982 1117.26C752.639 1117.35 753.387 1117.43 754.226 1117.5C755.064 1117.55 755.926 1117.63 756.81 1117.74C757.694 1117.85 758.555 1118.01 759.394 1118.22C760.232 1118.42 760.98 1118.73 761.638 1119.13C762.295 1119.52 762.828 1120.04 763.236 1120.7C763.644 1121.33 763.848 1122.14 763.848 1123.11C763.848 1123.86 763.689 1124.6 763.372 1125.32C763.077 1126.05 762.556 1126.7 761.808 1127.29C761.082 1127.86 760.096 1128.31 758.85 1128.65C757.626 1128.99 756.096 1129.16 754.26 1129.16C752.832 1129.16 751.596 1129.1 750.554 1128.96C749.534 1128.82 748.661 1128.66 747.936 1128.48C747.21 1128.28 746.632 1128.1 746.202 1127.94C745.794 1127.78 745.488 1127.7 745.284 1127.7C745.148 1127.7 745.023 1127.75 744.91 1127.84C744.819 1127.93 744.717 1128.03 744.604 1128.14L744.196 1128.04L746.712 1121.99L747.052 1122.16ZM789.813 1118.9C790.765 1118.9 791.456 1118.74 791.887 1118.42C792.34 1118.1 792.567 1117.58 792.567 1116.86C792.567 1116.2 792.34 1115.72 791.887 1115.43C791.456 1115.13 790.765 1114.99 789.813 1114.99H784.645V1118.9H789.813ZM784.645 1128.04C784.645 1128.2 784.69 1128.34 784.781 1128.45C784.894 1128.54 785.166 1128.61 785.597 1128.65V1129.06H778.593V1128.65C779.024 1128.61 779.284 1128.54 779.375 1128.45C779.488 1128.34 779.545 1128.2 779.545 1128.04V1112.2C779.545 1112.04 779.488 1111.91 779.375 1111.82C779.284 1111.71 779.024 1111.63 778.593 1111.59V1111.18H790.765C791.83 1111.18 792.771 1111.34 793.587 1111.65C794.403 1111.95 795.083 1112.36 795.627 1112.88C796.171 1113.4 796.579 1114.01 796.851 1114.71C797.123 1115.39 797.259 1116.11 797.259 1116.86C797.259 1117.6 797.123 1118.33 796.851 1119.03C796.579 1119.71 796.171 1120.31 795.627 1120.83C795.083 1121.33 794.403 1121.74 793.587 1122.06C792.771 1122.35 791.83 1122.5 790.765 1122.5H784.645V1128.04ZM813.035 1118.73C814.032 1118.73 814.712 1118.54 815.075 1118.18C815.46 1117.8 815.653 1117.35 815.653 1116.86C815.653 1116.36 815.46 1115.93 815.075 1115.56C814.712 1115.18 814.032 1114.99 813.035 1114.99H807.323V1118.73H813.035ZM807.323 1128.04C807.323 1128.2 807.368 1128.34 807.459 1128.45C807.572 1128.54 807.844 1128.61 808.275 1128.65V1129.06H801.271V1128.65C801.701 1128.61 801.962 1128.54 802.053 1128.45C802.166 1128.34 802.223 1128.2 802.223 1128.04V1112.2C802.223 1112.04 802.166 1111.91 802.053 1111.82C801.962 1111.71 801.701 1111.63 801.271 1111.59V1111.18H813.715C816.231 1111.18 818.055 1111.64 819.189 1112.57C820.322 1113.48 820.889 1114.89 820.889 1116.82C820.889 1118.39 820.424 1119.61 819.495 1120.49C818.588 1121.38 817.432 1122.01 816.027 1122.4L820.039 1128.04C820.311 1128.45 820.639 1128.65 821.025 1128.65V1129.06H813.953V1128.65C814.451 1128.63 814.701 1128.43 814.701 1128.04C814.701 1128 814.61 1127.84 814.429 1127.57C814.247 1127.29 814.021 1126.96 813.749 1126.58C813.477 1126.19 813.171 1125.79 812.831 1125.36C812.513 1124.9 812.196 1124.47 811.879 1124.06C811.584 1123.66 811.323 1123.29 811.097 1122.98C810.87 1122.66 810.723 1122.44 810.655 1122.33H807.323V1128.04ZM835.328 1110.97C836.778 1110.97 838.138 1111.18 839.408 1111.59C840.7 1111.97 841.822 1112.55 842.774 1113.32C843.748 1114.09 844.519 1115.04 845.086 1116.18C845.652 1117.31 845.936 1118.62 845.936 1120.12C845.936 1121.62 845.652 1122.93 845.086 1124.06C844.519 1125.2 843.748 1126.15 842.774 1126.92C841.822 1127.69 840.7 1128.26 839.408 1128.62C838.138 1128.98 836.778 1129.16 835.328 1129.16C833.877 1129.16 832.506 1128.98 831.214 1128.62C829.944 1128.26 828.822 1127.69 827.848 1126.92C826.896 1126.15 826.136 1125.2 825.57 1124.06C825.003 1122.93 824.72 1121.62 824.72 1120.12C824.72 1118.62 825.003 1117.31 825.57 1116.18C826.136 1115.04 826.896 1114.09 827.848 1113.32C828.822 1112.55 829.944 1111.97 831.214 1111.59C832.506 1111.18 833.877 1110.97 835.328 1110.97ZM835.328 1115.12C834.58 1115.12 833.866 1115.23 833.186 1115.46C832.528 1115.69 831.939 1116.02 831.418 1116.45C830.919 1116.86 830.511 1117.38 830.194 1118.01C829.899 1118.62 829.752 1119.33 829.752 1120.12C829.752 1120.91 829.899 1121.63 830.194 1122.26C830.511 1122.87 830.919 1123.39 831.418 1123.83C831.939 1124.23 832.528 1124.55 833.186 1124.78C833.866 1125 834.58 1125.12 835.328 1125.12C836.076 1125.12 836.778 1125 837.436 1124.78C838.116 1124.55 838.705 1124.23 839.204 1123.83C839.725 1123.39 840.133 1122.87 840.428 1122.26C840.745 1121.63 840.904 1120.91 840.904 1120.12C840.904 1119.33 840.745 1118.62 840.428 1118.01C840.133 1117.38 839.725 1116.86 839.204 1116.45C838.705 1116.02 838.116 1115.69 837.436 1115.46C836.778 1115.23 836.076 1115.12 835.328 1115.12ZM860.715 1125.05C862.505 1125.05 863.797 1124.6 864.591 1123.69C865.384 1122.76 865.781 1121.57 865.781 1120.12C865.781 1118.67 865.384 1117.49 864.591 1116.58C863.797 1115.65 862.505 1115.19 860.715 1115.19H856.397V1125.05H860.715ZM851.297 1112.2C851.297 1112.04 851.24 1111.91 851.127 1111.82C851.036 1111.71 850.775 1111.63 850.345 1111.59V1111.18H861.633C863.197 1111.18 864.557 1111.4 865.713 1111.86C866.869 1112.31 867.821 1112.95 868.569 1113.76C869.317 1114.55 869.872 1115.5 870.235 1116.58C870.62 1117.67 870.813 1118.85 870.813 1120.12C870.813 1121.28 870.609 1122.4 870.201 1123.49C869.815 1124.55 869.215 1125.5 868.399 1126.34C867.605 1127.16 866.608 1127.81 865.407 1128.31C864.228 1128.81 862.845 1129.06 861.259 1129.06H850.345V1128.65C850.775 1128.61 851.036 1128.54 851.127 1128.45C851.24 1128.34 851.297 1128.2 851.297 1128.04V1112.2ZM889.638 1112.2C889.638 1112.04 889.581 1111.91 889.468 1111.82C889.377 1111.71 889.117 1111.63 888.686 1111.59V1111.18H895.69V1111.59C895.259 1111.63 894.987 1111.71 894.874 1111.82C894.783 1111.91 894.738 1112.04 894.738 1112.2V1121.31C894.738 1122.81 894.489 1124.06 893.99 1125.08C893.514 1126.1 892.845 1126.92 891.984 1127.53C891.145 1128.14 890.148 1128.57 888.992 1128.82C887.859 1129.05 886.646 1129.16 885.354 1129.16C884.062 1129.16 882.838 1129.05 881.682 1128.82C880.549 1128.57 879.551 1128.14 878.69 1127.53C877.851 1126.92 877.183 1126.1 876.684 1125.08C876.208 1124.06 875.97 1122.81 875.97 1121.31V1112.2C875.97 1112.04 875.913 1111.91 875.8 1111.82C875.709 1111.71 875.449 1111.63 875.018 1111.59V1111.18H882.022V1111.59C881.591 1111.63 881.319 1111.71 881.206 1111.82C881.115 1111.91 881.07 1112.04 881.07 1112.2V1121.31C881.07 1122.62 881.444 1123.56 882.192 1124.13C882.94 1124.7 883.994 1124.98 885.354 1124.98C886.714 1124.98 887.768 1124.7 888.516 1124.13C889.264 1123.56 889.638 1122.62 889.638 1121.31V1112.2ZM917.631 1117.54C917.653 1117.47 917.665 1117.4 917.665 1117.33C917.687 1117.24 917.699 1117.14 917.699 1117.03C917.699 1116.84 917.54 1116.66 917.223 1116.48C916.928 1116.3 916.52 1116.14 915.999 1116.01C915.5 1115.85 914.922 1115.72 914.265 1115.63C913.607 1115.52 912.916 1115.46 912.191 1115.46C911.511 1115.46 910.797 1115.54 910.049 1115.7C909.301 1115.86 908.609 1116.12 907.975 1116.48C907.363 1116.84 906.853 1117.33 906.445 1117.94C906.059 1118.53 905.867 1119.26 905.867 1120.12C905.867 1120.98 906.059 1121.72 906.445 1122.33C906.853 1122.92 907.363 1123.39 907.975 1123.76C908.609 1124.12 909.301 1124.38 910.049 1124.54C910.797 1124.7 911.511 1124.78 912.191 1124.78C912.485 1124.78 912.95 1124.73 913.585 1124.64C914.219 1124.53 914.854 1124.38 915.489 1124.2C916.123 1124.02 916.679 1123.81 917.155 1123.59C917.653 1123.36 917.903 1123.12 917.903 1122.87C917.903 1122.76 917.88 1122.67 917.835 1122.6C917.789 1122.53 917.744 1122.45 917.699 1122.36L918.073 1122.13L921.575 1127.46L921.167 1127.7C921.121 1127.59 921.053 1127.52 920.963 1127.5C920.895 1127.45 920.804 1127.43 920.691 1127.43C920.532 1127.43 920.215 1127.53 919.739 1127.74C919.263 1127.92 918.639 1128.12 917.869 1128.35C917.121 1128.55 916.237 1128.74 915.217 1128.93C914.197 1129.08 913.052 1129.16 911.783 1129.16C910.423 1129.16 909.074 1128.99 907.737 1128.65C906.399 1128.29 905.198 1127.74 904.133 1126.99C903.067 1126.22 902.206 1125.26 901.549 1124.13C900.891 1122.98 900.563 1121.64 900.563 1120.12C900.563 1118.6 900.891 1117.27 901.549 1116.14C902.206 1114.99 903.067 1114.03 904.133 1113.29C905.198 1112.51 906.399 1111.94 907.737 1111.55C909.074 1111.17 910.423 1110.97 911.783 1110.97C913.143 1110.97 914.31 1111.05 915.285 1111.21C916.282 1111.35 917.121 1111.51 917.801 1111.69C918.458 1111.87 918.968 1112.03 919.331 1112.16C919.693 1112.28 919.965 1112.33 920.147 1112.33C920.351 1112.33 920.521 1112.24 920.657 1112.06L921.031 1112.16L917.971 1117.77L917.631 1117.54ZM929.996 1128.65C930.427 1128.61 930.687 1128.54 930.778 1128.45C930.891 1128.34 930.948 1128.2 930.948 1128.04V1115.33H925.1C924.919 1115.33 924.783 1115.39 924.692 1115.53C924.601 1115.64 924.533 1115.89 924.488 1116.28H924.08V1110.23H924.488C924.533 1110.61 924.601 1110.87 924.692 1111.01C924.783 1111.12 924.919 1111.18 925.1 1111.18H941.896C942.077 1111.18 942.213 1111.12 942.304 1111.01C942.395 1110.87 942.463 1110.61 942.508 1110.23H942.916V1116.28H942.508C942.463 1115.89 942.395 1115.64 942.304 1115.53C942.213 1115.39 942.077 1115.33 941.896 1115.33H936.048V1128.04C936.048 1128.2 936.093 1128.34 936.184 1128.45C936.297 1128.54 936.569 1128.61 937 1128.65V1129.06H929.996V1128.65ZM960.063 1122.53C960.018 1122.31 959.916 1122.13 959.757 1121.99C959.621 1121.83 959.383 1121.75 959.043 1121.75H952.719V1124.91H963.633C963.814 1124.91 963.95 1124.86 964.041 1124.74C964.132 1124.61 964.2 1124.32 964.245 1123.89H964.653V1129.71H964.245C964.2 1129.41 964.132 1129.23 964.041 1129.16C963.95 1129.1 963.814 1129.06 963.633 1129.06H946.667V1128.65C947.098 1128.61 947.358 1128.54 947.449 1128.45C947.562 1128.34 947.619 1128.2 947.619 1128.04V1112.2C947.619 1112.04 947.562 1111.91 947.449 1111.82C947.358 1111.71 947.098 1111.63 946.667 1111.59V1111.18H963.633C963.814 1111.18 963.95 1111.12 964.041 1111.01C964.132 1110.87 964.2 1110.61 964.245 1110.23H964.653V1116.14H964.245C964.2 1115.76 964.132 1115.51 964.041 1115.39C963.95 1115.26 963.814 1115.19 963.633 1115.19H952.719V1118.01H959.043C959.383 1118.01 959.621 1117.94 959.757 1117.81C959.916 1117.65 960.018 1117.46 960.063 1117.23H960.471V1122.53H960.063ZM970.841 1122.16C970.795 1122.3 970.773 1122.53 970.773 1122.87C970.773 1123.1 970.977 1123.36 971.385 1123.66C971.815 1123.93 972.359 1124.19 973.017 1124.44C973.697 1124.69 974.467 1124.9 975.329 1125.08C976.19 1125.24 977.063 1125.32 977.947 1125.32C979.647 1125.32 980.893 1125.13 981.687 1124.74C982.48 1124.34 982.877 1123.76 982.877 1123.01C982.877 1122.6 982.525 1122.32 981.823 1122.16C981.143 1121.98 980.281 1121.84 979.239 1121.75C978.196 1121.64 977.074 1121.52 975.873 1121.41C974.671 1121.28 973.549 1121.05 972.507 1120.73C971.464 1120.39 970.591 1119.92 969.889 1119.3C969.209 1118.67 968.869 1117.81 968.869 1116.72C968.869 1115.86 969.061 1115.08 969.447 1114.37C969.855 1113.67 970.41 1113.07 971.113 1112.57C971.838 1112.07 972.711 1111.69 973.731 1111.42C974.751 1111.12 975.884 1110.97 977.131 1110.97C978.287 1110.97 979.363 1111.05 980.361 1111.21C981.358 1111.35 982.242 1111.51 983.013 1111.69C983.783 1111.87 984.429 1112.04 984.951 1112.2C985.472 1112.33 985.846 1112.4 986.073 1112.4C986.299 1112.4 986.481 1112.36 986.617 1112.27C986.753 1112.15 986.877 1112.03 986.991 1111.89L987.365 1112.03L985.019 1116.75L984.611 1116.55V1116.18C984.611 1115.97 984.384 1115.77 983.931 1115.56C983.5 1115.34 982.945 1115.14 982.265 1114.99C981.585 1114.8 980.825 1114.66 979.987 1114.54C979.148 1114.43 978.332 1114.37 977.539 1114.37C976.065 1114.37 975.034 1114.54 974.445 1114.88C973.855 1115.22 973.561 1115.59 973.561 1115.97C973.561 1116.36 973.765 1116.65 974.173 1116.86C974.581 1117.04 975.113 1117.17 975.771 1117.26C976.428 1117.35 977.176 1117.43 978.015 1117.5C978.853 1117.55 979.715 1117.63 980.599 1117.74C981.483 1117.85 982.344 1118.01 983.183 1118.22C984.021 1118.42 984.769 1118.73 985.427 1119.13C986.084 1119.52 986.617 1120.04 987.025 1120.7C987.433 1121.33 987.637 1122.14 987.637 1123.11C987.637 1123.86 987.478 1124.6 987.161 1125.32C986.866 1126.05 986.345 1126.7 985.597 1127.29C984.871 1127.86 983.885 1128.31 982.639 1128.65C981.415 1128.99 979.885 1129.16 978.049 1129.16C976.621 1129.16 975.385 1129.1 974.343 1128.96C973.323 1128.82 972.45 1128.66 971.725 1128.48C970.999 1128.28 970.421 1128.1 969.991 1127.94C969.583 1127.78 969.277 1127.7 969.073 1127.7C968.937 1127.7 968.812 1127.75 968.699 1127.84C968.608 1127.93 968.506 1128.03 968.393 1128.14L967.985 1128.04L970.501 1121.99L970.841 1122.16Z" fill="#796743" />

<path xmlns="http://www.w3.org/2000/svg" d="M578.243 1165.36C577.063 1165.36 575.974 1165.15 574.977 1164.72C573.981 1164.29 573.114 1163.71 572.378 1162.97C571.658 1162.22 571.09 1161.34 570.676 1160.33C570.262 1159.31 570.055 1158.23 570.055 1157.08V1157.04C570.055 1155.89 570.255 1154.81 570.653 1153.82C571.067 1152.8 571.642 1151.92 572.378 1151.17C573.114 1150.41 573.988 1149.81 575 1149.38C576.012 1148.93 577.132 1148.71 578.358 1148.71C579.094 1148.71 579.761 1148.77 580.359 1148.89C580.973 1149.02 581.532 1149.19 582.038 1149.42C582.544 1149.64 583.012 1149.9 583.441 1150.21C583.871 1150.51 584.277 1150.85 584.66 1151.22L582.843 1153.31C582.199 1152.71 581.517 1152.23 580.796 1151.86C580.076 1151.49 579.255 1151.31 578.335 1151.31C577.569 1151.31 576.856 1151.46 576.196 1151.77C575.552 1152.06 574.993 1152.47 574.517 1152.99C574.042 1153.49 573.674 1154.09 573.413 1154.78C573.153 1155.47 573.022 1156.21 573.022 1156.99V1157.04C573.022 1157.82 573.153 1158.56 573.413 1159.27C573.674 1159.96 574.042 1160.56 574.517 1161.08C574.993 1161.61 575.552 1162.02 576.196 1162.33C576.856 1162.62 577.569 1162.76 578.335 1162.76C579.317 1162.76 580.16 1162.58 580.865 1162.21C581.571 1161.83 582.268 1161.31 582.958 1160.67L584.775 1162.51C584.361 1162.96 583.924 1163.35 583.464 1163.71C583.02 1164.04 582.537 1164.34 582.015 1164.6C581.494 1164.85 580.919 1165.03 580.29 1165.16C579.677 1165.29 578.995 1165.36 578.243 1165.36ZM594.925 1160C594.572 1159.87 594.15 1159.75 593.66 1159.66C593.184 1159.57 592.678 1159.52 592.142 1159.52C591.268 1159.52 590.585 1159.69 590.095 1160.03C589.604 1160.36 589.359 1160.82 589.359 1161.41V1161.45C589.359 1162.04 589.581 1162.48 590.026 1162.79C590.486 1163.09 591.045 1163.25 591.705 1163.25C592.165 1163.25 592.586 1163.19 592.97 1163.06C593.368 1162.94 593.713 1162.77 594.005 1162.56C594.296 1162.33 594.518 1162.06 594.672 1161.75C594.84 1161.43 594.925 1161.08 594.925 1160.69V1160ZM594.856 1165.09V1163.59C594.442 1164.08 593.913 1164.5 593.269 1164.83C592.625 1165.17 591.843 1165.34 590.923 1165.34C590.34 1165.34 589.788 1165.26 589.267 1165.09C588.745 1164.93 588.285 1164.7 587.887 1164.4C587.503 1164.07 587.189 1163.68 586.944 1163.22C586.714 1162.75 586.599 1162.2 586.599 1161.59V1161.54C586.599 1160.87 586.721 1160.29 586.967 1159.8C587.212 1159.29 587.549 1158.88 587.979 1158.55C588.423 1158.22 588.945 1157.97 589.543 1157.82C590.156 1157.65 590.815 1157.57 591.521 1157.57C592.257 1157.57 592.878 1157.61 593.384 1157.7C593.905 1157.8 594.403 1157.92 594.879 1158.07V1157.84C594.879 1157 594.618 1156.35 594.097 1155.91C593.591 1155.47 592.855 1155.24 591.889 1155.24C591.199 1155.24 590.585 1155.31 590.049 1155.45C589.512 1155.59 588.968 1155.77 588.416 1156L587.657 1153.77C588.331 1153.46 589.021 1153.22 589.727 1153.03C590.432 1152.85 591.283 1152.76 592.28 1152.76C594.089 1152.76 595.431 1153.21 596.305 1154.12C597.179 1155.01 597.616 1156.26 597.616 1157.89V1165.09H594.856ZM605.089 1165.32C604.215 1165.32 603.325 1165.16 602.421 1164.86C601.531 1164.55 600.703 1164.1 599.937 1163.5L601.179 1161.61C601.838 1162.1 602.505 1162.48 603.18 1162.74C603.87 1162.99 604.529 1163.11 605.158 1163.11C605.756 1163.11 606.216 1162.99 606.538 1162.76C606.875 1162.52 607.044 1162.2 607.044 1161.8V1161.75C607.044 1161.52 606.967 1161.32 606.814 1161.15C606.676 1160.99 606.476 1160.84 606.216 1160.72C605.97 1160.59 605.679 1160.48 605.342 1160.37C605.02 1160.26 604.682 1160.16 604.33 1160.05C603.885 1159.93 603.433 1159.78 602.973 1159.61C602.528 1159.44 602.122 1159.23 601.754 1158.97C601.401 1158.69 601.11 1158.36 600.88 1157.96C600.65 1157.56 600.535 1157.07 600.535 1156.48V1156.44C600.535 1155.87 600.642 1155.36 600.857 1154.9C601.087 1154.44 601.393 1154.05 601.777 1153.72C602.175 1153.4 602.635 1153.16 603.157 1152.99C603.693 1152.82 604.261 1152.74 604.859 1152.74C605.625 1152.74 606.4 1152.86 607.182 1153.1C607.964 1153.35 608.677 1153.69 609.321 1154.12L608.217 1156.09C607.634 1155.74 607.044 1155.47 606.446 1155.27C605.848 1155.05 605.296 1154.94 604.79 1154.94C604.253 1154.94 603.831 1155.06 603.525 1155.29C603.233 1155.52 603.088 1155.81 603.088 1156.16V1156.21C603.088 1156.42 603.164 1156.62 603.318 1156.78C603.471 1156.94 603.67 1157.08 603.916 1157.22C604.176 1157.34 604.468 1157.47 604.79 1157.59C605.127 1157.7 605.472 1157.8 605.825 1157.91C606.269 1158.05 606.714 1158.21 607.159 1158.39C607.603 1158.58 608.002 1158.81 608.355 1159.08C608.723 1159.34 609.022 1159.67 609.252 1160.05C609.482 1160.43 609.597 1160.9 609.597 1161.45V1161.5C609.597 1162.14 609.482 1162.7 609.252 1163.18C609.022 1163.65 608.7 1164.05 608.286 1164.37C607.887 1164.68 607.412 1164.92 606.86 1165.09C606.308 1165.24 605.717 1165.32 605.089 1165.32ZM616.497 1165.29C615.991 1165.29 615.523 1165.23 615.094 1165.11C614.664 1164.99 614.289 1164.79 613.967 1164.51C613.66 1164.24 613.422 1163.88 613.254 1163.43C613.085 1162.97 613.001 1162.4 613.001 1161.73V1155.33H611.46V1152.94H613.001V1149.61H615.784V1152.94H619.05V1155.33H615.784V1161.29C615.784 1161.83 615.914 1162.22 616.175 1162.46C616.435 1162.69 616.803 1162.81 617.279 1162.81C617.877 1162.81 618.452 1162.67 619.004 1162.4V1164.67C618.651 1164.87 618.275 1165.03 617.877 1165.13C617.478 1165.24 617.018 1165.29 616.497 1165.29ZM629.357 1160C629.005 1159.87 628.583 1159.75 628.092 1159.66C627.617 1159.57 627.111 1159.52 626.574 1159.52C625.7 1159.52 625.018 1159.69 624.527 1160.03C624.037 1160.36 623.791 1160.82 623.791 1161.41V1161.45C623.791 1162.04 624.014 1162.48 624.458 1162.79C624.918 1163.09 625.478 1163.25 626.137 1163.25C626.597 1163.25 627.019 1163.19 627.402 1163.06C627.801 1162.94 628.146 1162.77 628.437 1162.56C628.729 1162.33 628.951 1162.06 629.104 1161.75C629.273 1161.43 629.357 1161.08 629.357 1160.69V1160ZM629.288 1165.09V1163.59C628.874 1164.08 628.345 1164.5 627.701 1164.83C627.057 1165.17 626.275 1165.34 625.355 1165.34C624.773 1165.34 624.221 1165.26 623.699 1165.09C623.178 1164.93 622.718 1164.7 622.319 1164.4C621.936 1164.07 621.622 1163.68 621.376 1163.22C621.146 1162.75 621.031 1162.2 621.031 1161.59V1161.54C621.031 1160.87 621.154 1160.29 621.399 1159.8C621.645 1159.29 621.982 1158.88 622.411 1158.55C622.856 1158.22 623.377 1157.97 623.975 1157.82C624.589 1157.65 625.248 1157.57 625.953 1157.57C626.689 1157.57 627.31 1157.61 627.816 1157.7C628.338 1157.8 628.836 1157.92 629.311 1158.07V1157.84C629.311 1157 629.051 1156.35 628.529 1155.91C628.023 1155.47 627.287 1155.24 626.321 1155.24C625.631 1155.24 625.018 1155.31 624.481 1155.45C623.945 1155.59 623.4 1155.77 622.848 1156L622.089 1153.77C622.764 1153.46 623.454 1153.22 624.159 1153.03C624.865 1152.85 625.716 1152.76 626.712 1152.76C628.522 1152.76 629.863 1153.21 630.737 1154.12C631.611 1155.01 632.048 1156.26 632.048 1157.89V1165.09H629.288ZM635.358 1152.94H638.141V1154.83C638.341 1154.54 638.555 1154.27 638.785 1154.02C639.031 1153.76 639.307 1153.53 639.613 1153.33C639.935 1153.13 640.28 1152.98 640.648 1152.87C641.032 1152.75 641.461 1152.69 641.936 1152.69C643.316 1152.69 644.382 1153.11 645.133 1153.95C645.885 1154.8 646.26 1155.93 646.26 1157.36V1165.09H643.477V1158.19C643.477 1157.24 643.247 1156.51 642.787 1156C642.343 1155.48 641.706 1155.22 640.878 1155.22C640.066 1155.22 639.406 1155.49 638.9 1156.02C638.394 1156.55 638.141 1157.28 638.141 1158.23V1165.09H635.358V1152.94ZM652.105 1168.84C651.522 1168.84 651.001 1168.77 650.541 1168.63C650.096 1168.51 649.659 1168.33 649.23 1168.1L650.173 1166.03C650.434 1166.17 650.694 1166.28 650.955 1166.35C651.231 1166.44 651.515 1166.49 651.806 1166.49C652.205 1166.49 652.534 1166.39 652.795 1166.19C653.056 1165.99 653.301 1165.62 653.531 1165.09L648.471 1152.94H651.438L654.888 1161.96L658.039 1152.94H660.937L656.107 1165.43C655.862 1166.06 655.609 1166.59 655.348 1167.02C655.087 1167.45 654.796 1167.79 654.474 1168.05C654.152 1168.33 653.799 1168.53 653.416 1168.65C653.033 1168.77 652.596 1168.84 652.105 1168.84ZM671.648 1158.16C671.602 1157.72 671.503 1157.31 671.349 1156.92C671.196 1156.52 670.989 1156.19 670.728 1155.91C670.468 1155.62 670.153 1155.39 669.785 1155.22C669.433 1155.05 669.026 1154.97 668.566 1154.97C667.708 1154.97 666.995 1155.27 666.427 1155.86C665.875 1156.45 665.538 1157.21 665.415 1158.16H671.648ZM668.888 1165.36C668.014 1165.36 667.194 1165.21 666.427 1164.9C665.676 1164.6 665.017 1164.17 664.449 1163.61C663.897 1163.06 663.46 1162.4 663.138 1161.64C662.816 1160.85 662.655 1160 662.655 1159.06V1159.01C662.655 1158.14 662.801 1157.32 663.092 1156.55C663.384 1155.79 663.79 1155.12 664.311 1154.55C664.848 1153.97 665.477 1153.52 666.197 1153.2C666.918 1152.86 667.715 1152.69 668.589 1152.69C669.555 1152.69 670.399 1152.87 671.119 1153.22C671.855 1153.57 672.461 1154.05 672.936 1154.64C673.427 1155.24 673.795 1155.94 674.04 1156.74C674.286 1157.52 674.408 1158.35 674.408 1159.22C674.408 1159.34 674.401 1159.47 674.385 1159.61C674.385 1159.74 674.378 1159.87 674.362 1160H665.438C665.592 1161 665.983 1161.77 666.611 1162.3C667.255 1162.83 668.03 1163.09 668.934 1163.09C669.624 1163.09 670.222 1162.96 670.728 1162.72C671.234 1162.47 671.733 1162.11 672.223 1161.64L673.856 1163.09C673.274 1163.78 672.576 1164.33 671.763 1164.74C670.966 1165.16 670.008 1165.36 668.888 1165.36ZM681.366 1165.32C680.492 1165.32 679.603 1165.16 678.698 1164.86C677.809 1164.55 676.981 1164.1 676.214 1163.5L677.456 1161.61C678.115 1162.1 678.782 1162.48 679.457 1162.74C680.147 1162.99 680.806 1163.11 681.435 1163.11C682.033 1163.11 682.493 1162.99 682.815 1162.76C683.152 1162.52 683.321 1162.2 683.321 1161.8V1161.75C683.321 1161.52 683.244 1161.32 683.091 1161.15C682.953 1160.99 682.754 1160.84 682.493 1160.72C682.248 1160.59 681.956 1160.48 681.619 1160.37C681.297 1160.26 680.96 1160.16 680.607 1160.05C680.162 1159.93 679.71 1159.78 679.25 1159.61C678.805 1159.44 678.399 1159.23 678.031 1158.97C677.678 1158.69 677.387 1158.36 677.157 1157.96C676.927 1157.56 676.812 1157.07 676.812 1156.48V1156.44C676.812 1155.87 676.919 1155.36 677.134 1154.9C677.364 1154.44 677.671 1154.05 678.054 1153.72C678.453 1153.4 678.913 1153.16 679.434 1152.99C679.971 1152.82 680.538 1152.74 681.136 1152.74C681.903 1152.74 682.677 1152.86 683.459 1153.1C684.241 1153.35 684.954 1153.69 685.598 1154.12L684.494 1156.09C683.911 1155.74 683.321 1155.47 682.723 1155.27C682.125 1155.05 681.573 1154.94 681.067 1154.94C680.53 1154.94 680.109 1155.06 679.802 1155.29C679.511 1155.52 679.365 1155.81 679.365 1156.16V1156.21C679.365 1156.42 679.442 1156.62 679.595 1156.78C679.748 1156.94 679.948 1157.08 680.193 1157.22C680.454 1157.34 680.745 1157.47 681.067 1157.59C681.404 1157.7 681.749 1157.8 682.102 1157.91C682.547 1158.05 682.991 1158.21 683.436 1158.39C683.881 1158.58 684.279 1158.81 684.632 1159.08C685 1159.34 685.299 1159.67 685.529 1160.05C685.759 1160.43 685.874 1160.9 685.874 1161.45V1161.5C685.874 1162.14 685.759 1162.7 685.529 1163.18C685.299 1163.65 684.977 1164.05 684.563 1164.37C684.164 1164.68 683.689 1164.92 683.137 1165.09C682.585 1165.24 681.995 1165.32 681.366 1165.32ZM701.855 1162.92C702.33 1162.92 702.775 1162.83 703.189 1162.65C703.618 1162.46 703.986 1162.21 704.293 1161.89C704.615 1161.55 704.868 1161.15 705.052 1160.67C705.236 1160.18 705.328 1159.64 705.328 1159.04V1158.99C705.328 1158.41 705.236 1157.88 705.052 1157.4C704.868 1156.91 704.615 1156.5 704.293 1156.16C703.986 1155.83 703.618 1155.56 703.189 1155.38C702.775 1155.2 702.33 1155.1 701.855 1155.1C701.379 1155.1 700.927 1155.2 700.498 1155.38C700.068 1155.56 699.693 1155.83 699.371 1156.19C699.049 1156.52 698.788 1156.93 698.589 1157.4C698.405 1157.88 698.313 1158.41 698.313 1158.99V1159.04C698.313 1159.62 698.405 1160.16 698.589 1160.65C698.788 1161.12 699.049 1161.53 699.371 1161.87C699.693 1162.2 700.068 1162.46 700.498 1162.65C700.927 1162.83 701.379 1162.92 701.855 1162.92ZM695.599 1152.94H698.382V1154.97C698.826 1154.32 699.378 1153.79 700.038 1153.36C700.697 1152.91 701.517 1152.69 702.499 1152.69C703.219 1152.69 703.917 1152.83 704.592 1153.1C705.266 1153.38 705.864 1153.79 706.386 1154.32C706.922 1154.86 707.352 1155.52 707.674 1156.3C707.996 1157.08 708.157 1157.98 708.157 1158.99V1159.04C708.157 1160.05 707.996 1160.95 707.674 1161.73C707.367 1162.51 706.945 1163.17 706.409 1163.71C705.887 1164.24 705.282 1164.65 704.592 1164.93C703.917 1165.2 703.219 1165.34 702.499 1165.34C701.502 1165.34 700.674 1165.13 700.015 1164.7C699.355 1164.27 698.811 1163.77 698.382 1163.2V1168.77H695.599V1152.94ZM719.333 1158.16C719.287 1157.72 719.187 1157.31 719.034 1156.92C718.88 1156.52 718.673 1156.19 718.413 1155.91C718.152 1155.62 717.838 1155.39 717.47 1155.22C717.117 1155.05 716.711 1154.97 716.251 1154.97C715.392 1154.97 714.679 1155.27 714.112 1155.86C713.56 1156.45 713.222 1157.21 713.1 1158.16H719.333ZM716.573 1165.36C715.699 1165.36 714.878 1165.21 714.112 1164.9C713.36 1164.6 712.701 1164.17 712.134 1163.61C711.582 1163.06 711.145 1162.4 710.823 1161.64C710.501 1160.85 710.34 1160 710.34 1159.06V1159.01C710.34 1158.14 710.485 1157.32 710.777 1156.55C711.068 1155.79 711.474 1155.12 711.996 1154.55C712.532 1153.97 713.161 1153.52 713.882 1153.2C714.602 1152.86 715.4 1152.69 716.274 1152.69C717.24 1152.69 718.083 1152.87 718.804 1153.22C719.54 1153.57 720.145 1154.05 720.621 1154.64C721.111 1155.24 721.479 1155.94 721.725 1156.74C721.97 1157.52 722.093 1158.35 722.093 1159.22C722.093 1159.34 722.085 1159.47 722.07 1159.61C722.07 1159.74 722.062 1159.87 722.047 1160H713.123C713.276 1161 713.667 1161.77 714.296 1162.3C714.94 1162.83 715.714 1163.09 716.619 1163.09C717.309 1163.09 717.907 1162.96 718.413 1162.72C718.919 1162.47 719.417 1162.11 719.908 1161.64L721.541 1163.09C720.958 1163.78 720.26 1164.33 719.448 1164.74C718.65 1165.16 717.692 1165.36 716.573 1165.36ZM725.049 1148.3H727.832V1165.09H725.049V1148.3ZM735.632 1165.32C734.758 1165.32 733.868 1165.16 732.964 1164.86C732.074 1164.55 731.246 1164.1 730.48 1163.5L731.722 1161.61C732.381 1162.1 733.048 1162.48 733.723 1162.74C734.413 1162.99 735.072 1163.11 735.701 1163.11C736.299 1163.11 736.759 1162.99 737.081 1162.76C737.418 1162.52 737.587 1162.2 737.587 1161.8V1161.75C737.587 1161.52 737.51 1161.32 737.357 1161.15C737.219 1160.99 737.019 1160.84 736.759 1160.72C736.513 1160.59 736.222 1160.48 735.885 1160.37C735.563 1160.26 735.225 1160.16 734.873 1160.05C734.428 1159.93 733.976 1159.78 733.516 1159.61C733.071 1159.44 732.665 1159.23 732.297 1158.97C731.944 1158.69 731.653 1158.36 731.423 1157.96C731.193 1157.56 731.078 1157.07 731.078 1156.48V1156.44C731.078 1155.87 731.185 1155.36 731.4 1154.9C731.63 1154.44 731.936 1154.05 732.32 1153.72C732.718 1153.4 733.178 1153.16 733.7 1152.99C734.236 1152.82 734.804 1152.74 735.402 1152.74C736.168 1152.74 736.943 1152.86 737.725 1153.1C738.507 1153.35 739.22 1153.69 739.864 1154.12L738.76 1156.09C738.177 1155.74 737.587 1155.47 736.989 1155.27C736.391 1155.05 735.839 1154.94 735.333 1154.94C734.796 1154.94 734.374 1155.06 734.068 1155.29C733.776 1155.52 733.631 1155.81 733.631 1156.16V1156.21C733.631 1156.42 733.707 1156.62 733.861 1156.78C734.014 1156.94 734.213 1157.08 734.459 1157.22C734.719 1157.34 735.011 1157.47 735.333 1157.59C735.67 1157.7 736.015 1157.8 736.368 1157.91C736.812 1158.05 737.257 1158.21 737.702 1158.39C738.146 1158.58 738.545 1158.81 738.898 1159.08C739.266 1159.34 739.565 1159.67 739.795 1160.05C740.025 1160.43 740.14 1160.9 740.14 1161.45V1161.5C740.14 1162.14 740.025 1162.7 739.795 1163.18C739.565 1163.65 739.243 1164.05 738.829 1164.37C738.43 1164.68 737.955 1164.92 737.403 1165.09C736.851 1165.24 736.26 1165.32 735.632 1165.32ZM755.269 1165.36C753.859 1165.36 752.647 1165.1 751.635 1164.58C750.639 1164.04 749.795 1163.36 749.105 1162.53L751.083 1160.69C751.666 1161.38 752.287 1161.91 752.946 1162.28C753.621 1162.63 754.411 1162.81 755.315 1162.81C756.113 1162.81 756.772 1162.59 757.293 1162.14C757.83 1161.7 758.098 1161.11 758.098 1160.37V1160.33C758.098 1159.53 757.761 1158.92 757.086 1158.49C756.427 1158.06 755.53 1157.84 754.395 1157.84H753.084L752.624 1156.07L756.971 1151.45H750.002V1148.99H760.651V1151.1L756.166 1155.7C756.78 1155.78 757.37 1155.93 757.937 1156.14C758.505 1156.34 759.003 1156.62 759.432 1156.97C759.877 1157.32 760.23 1157.77 760.49 1158.3C760.766 1158.84 760.904 1159.48 760.904 1160.23V1160.28C760.904 1161.02 760.766 1161.7 760.49 1162.33C760.214 1162.96 759.831 1163.49 759.34 1163.94C758.85 1164.38 758.252 1164.73 757.546 1164.99C756.856 1165.24 756.097 1165.36 755.269 1165.36ZM770.016 1162.92C770.522 1162.92 770.974 1162.86 771.373 1162.72C771.772 1162.56 772.109 1162.36 772.385 1162.1C772.661 1161.82 772.868 1161.51 773.006 1161.15C773.159 1160.8 773.236 1160.42 773.236 1160V1159.96C773.236 1159.15 772.937 1158.48 772.339 1157.96C771.756 1157.42 770.959 1157.15 769.947 1157.15C769.441 1157.15 768.989 1157.23 768.59 1157.38C768.191 1157.54 767.846 1157.74 767.555 1158C767.279 1158.25 767.064 1158.55 766.911 1158.9C766.758 1159.24 766.681 1159.6 766.681 1159.98V1160.03C766.681 1160.44 766.758 1160.82 766.911 1161.18C767.08 1161.53 767.302 1161.84 767.578 1162.1C767.869 1162.36 768.222 1162.56 768.636 1162.72C769.05 1162.86 769.51 1162.92 770.016 1162.92ZM770.085 1165.36C769.088 1165.36 768.222 1165.22 767.486 1164.93C766.765 1164.63 766.137 1164.22 765.6 1163.68C765.293 1163.38 765.017 1163.04 764.772 1162.67C764.542 1162.29 764.343 1161.85 764.174 1161.36C764.005 1160.87 763.875 1160.31 763.783 1159.68C763.691 1159.05 763.645 1158.33 763.645 1157.52V1157.47C763.645 1156.25 763.791 1155.1 764.082 1154.05C764.373 1152.97 764.803 1152.05 765.37 1151.26C765.953 1150.47 766.673 1149.85 767.532 1149.4C768.406 1148.94 769.41 1148.71 770.545 1148.71C771.588 1148.71 772.492 1148.87 773.259 1149.19C774.026 1149.5 774.762 1149.94 775.467 1150.5L773.949 1152.69C773.382 1152.25 772.83 1151.9 772.293 1151.65C771.772 1151.41 771.158 1151.29 770.453 1151.29C769.855 1151.29 769.318 1151.42 768.843 1151.68C768.383 1151.92 767.992 1152.28 767.67 1152.74C767.348 1153.2 767.095 1153.74 766.911 1154.37C766.727 1154.98 766.62 1155.66 766.589 1156.39C766.804 1156.19 767.034 1155.99 767.279 1155.79C767.524 1155.6 767.8 1155.43 768.107 1155.29C768.429 1155.14 768.774 1155.01 769.142 1154.92C769.525 1154.83 769.955 1154.78 770.43 1154.78C771.212 1154.78 771.94 1154.9 772.615 1155.13C773.305 1155.34 773.903 1155.67 774.409 1156.12C774.93 1156.55 775.337 1157.08 775.628 1157.7C775.919 1158.33 776.065 1159.05 776.065 1159.84V1159.89C776.065 1160.69 775.912 1161.42 775.605 1162.1C775.298 1162.77 774.877 1163.35 774.34 1163.84C773.803 1164.32 773.167 1164.7 772.431 1164.97C771.71 1165.23 770.928 1165.36 770.085 1165.36ZM784.42 1165.36C783.178 1165.36 782.074 1165.14 781.108 1164.7C780.142 1164.24 779.275 1163.64 778.509 1162.9L780.257 1160.85C780.901 1161.45 781.56 1161.93 782.235 1162.28C782.925 1162.62 783.645 1162.79 784.397 1162.79C785.363 1162.79 786.137 1162.53 786.72 1162.03C787.302 1161.52 787.594 1160.85 787.594 1160V1159.96C787.594 1159.13 787.279 1158.48 786.651 1158C786.037 1157.53 785.24 1157.29 784.259 1157.29C783.676 1157.29 783.139 1157.36 782.649 1157.5C782.158 1157.63 781.706 1157.8 781.292 1158L779.59 1156.88L780.05 1148.99H789.664V1151.49H782.488L782.235 1155.27C782.618 1155.13 783.001 1155.02 783.385 1154.94C783.783 1154.85 784.251 1154.81 784.788 1154.81C785.57 1154.81 786.298 1154.91 786.973 1155.13C787.663 1155.33 788.253 1155.64 788.744 1156.07C789.25 1156.48 789.648 1157.01 789.94 1157.66C790.231 1158.29 790.377 1159.02 790.377 1159.87V1159.91C790.377 1160.74 790.231 1161.49 789.94 1162.17C789.664 1162.83 789.265 1163.39 788.744 1163.87C788.222 1164.34 787.594 1164.71 786.858 1164.97C786.122 1165.23 785.309 1165.36 784.42 1165.36ZM806.06 1162.92C806.52 1162.92 806.965 1162.83 807.394 1162.65C807.823 1162.46 808.199 1162.2 808.521 1161.87C808.843 1161.51 809.096 1161.1 809.28 1160.62C809.479 1160.15 809.579 1159.62 809.579 1159.04V1158.99C809.579 1158.41 809.479 1157.88 809.28 1157.4C809.096 1156.91 808.843 1156.5 808.521 1156.16C808.199 1155.83 807.823 1155.56 807.394 1155.38C806.965 1155.2 806.52 1155.1 806.06 1155.1C805.585 1155.1 805.132 1155.2 804.703 1155.38C804.289 1155.55 803.921 1155.8 803.599 1156.14C803.277 1156.48 803.024 1156.89 802.84 1157.38C802.656 1157.86 802.564 1158.39 802.564 1158.99V1159.04C802.564 1159.62 802.656 1160.16 802.84 1160.65C803.024 1161.12 803.277 1161.53 803.599 1161.87C803.921 1162.2 804.289 1162.46 804.703 1162.65C805.132 1162.83 805.585 1162.92 806.06 1162.92ZM805.393 1165.34C804.672 1165.34 803.975 1165.2 803.3 1164.93C802.625 1164.65 802.027 1164.24 801.506 1163.71C800.985 1163.17 800.563 1162.51 800.241 1161.73C799.919 1160.95 799.758 1160.05 799.758 1159.04V1158.99C799.758 1157.98 799.911 1157.08 800.218 1156.3C800.54 1155.52 800.962 1154.86 801.483 1154.32C802.004 1153.79 802.602 1153.38 803.277 1153.1C803.967 1152.83 804.672 1152.69 805.393 1152.69C806.39 1152.69 807.218 1152.9 807.877 1153.33C808.536 1153.76 809.088 1154.26 809.533 1154.83V1148.3H812.316V1165.09H809.533V1163.06C809.088 1163.69 808.529 1164.23 807.854 1164.67C807.195 1165.12 806.374 1165.34 805.393 1165.34ZM818.57 1147.63L821.1 1148.76L818.294 1151.4H816.132L818.57 1147.63ZM815.948 1152.94H818.731V1165.09H815.948V1152.94ZM830.694 1158.16C830.648 1157.72 830.548 1157.31 830.395 1156.92C830.242 1156.52 830.035 1156.19 829.774 1155.91C829.513 1155.62 829.199 1155.39 828.831 1155.22C828.478 1155.05 828.072 1154.97 827.612 1154.97C826.753 1154.97 826.04 1155.27 825.473 1155.86C824.921 1156.45 824.584 1157.21 824.461 1158.16H830.694ZM827.934 1165.36C827.06 1165.36 826.24 1165.21 825.473 1164.9C824.722 1164.6 824.062 1164.17 823.495 1163.61C822.943 1163.06 822.506 1162.4 822.184 1161.64C821.862 1160.85 821.701 1160 821.701 1159.06V1159.01C821.701 1158.14 821.847 1157.32 822.138 1156.55C822.429 1155.79 822.836 1155.12 823.357 1154.55C823.894 1153.97 824.522 1153.52 825.243 1153.2C825.964 1152.86 826.761 1152.69 827.635 1152.69C828.601 1152.69 829.444 1152.87 830.165 1153.22C830.901 1153.57 831.507 1154.05 831.982 1154.64C832.473 1155.24 832.841 1155.94 833.086 1156.74C833.331 1157.52 833.454 1158.35 833.454 1159.22C833.454 1159.34 833.446 1159.47 833.431 1159.61C833.431 1159.74 833.423 1159.87 833.408 1160H824.484C824.637 1161 825.028 1161.77 825.657 1162.3C826.301 1162.83 827.075 1163.09 827.98 1163.09C828.67 1163.09 829.268 1162.96 829.774 1162.72C830.28 1162.47 830.778 1162.11 831.269 1161.64L832.902 1163.09C832.319 1163.78 831.622 1164.33 830.809 1164.74C830.012 1165.16 829.053 1165.36 827.934 1165.36ZM840.412 1165.32C839.538 1165.32 838.649 1165.16 837.744 1164.86C836.855 1164.55 836.027 1164.1 835.26 1163.5L836.502 1161.61C837.161 1162.1 837.828 1162.48 838.503 1162.74C839.193 1162.99 839.852 1163.11 840.481 1163.11C841.079 1163.11 841.539 1162.99 841.861 1162.76C842.198 1162.52 842.367 1162.2 842.367 1161.8V1161.75C842.367 1161.52 842.29 1161.32 842.137 1161.15C841.999 1160.99 841.8 1160.84 841.539 1160.72C841.294 1160.59 841.002 1160.48 840.665 1160.37C840.343 1160.26 840.006 1160.16 839.653 1160.05C839.208 1159.93 838.756 1159.78 838.296 1159.61C837.851 1159.44 837.445 1159.23 837.077 1158.97C836.724 1158.69 836.433 1158.36 836.203 1157.96C835.973 1157.56 835.858 1157.07 835.858 1156.48V1156.44C835.858 1155.87 835.965 1155.36 836.18 1154.9C836.41 1154.44 836.717 1154.05 837.1 1153.72C837.499 1153.4 837.959 1153.16 838.48 1152.99C839.017 1152.82 839.584 1152.74 840.182 1152.74C840.949 1152.74 841.723 1152.86 842.505 1153.1C843.287 1153.35 844 1153.69 844.644 1154.12L843.54 1156.09C842.957 1155.74 842.367 1155.47 841.769 1155.27C841.171 1155.05 840.619 1154.94 840.113 1154.94C839.576 1154.94 839.155 1155.06 838.848 1155.29C838.557 1155.52 838.411 1155.81 838.411 1156.16V1156.21C838.411 1156.42 838.488 1156.62 838.641 1156.78C838.794 1156.94 838.994 1157.08 839.239 1157.22C839.5 1157.34 839.791 1157.47 840.113 1157.59C840.45 1157.7 840.795 1157.8 841.148 1157.91C841.593 1158.05 842.037 1158.21 842.482 1158.39C842.927 1158.58 843.325 1158.81 843.678 1159.08C844.046 1159.34 844.345 1159.67 844.575 1160.05C844.805 1160.43 844.92 1160.9 844.92 1161.45V1161.5C844.92 1162.14 844.805 1162.7 844.575 1163.18C844.345 1163.65 844.023 1164.05 843.609 1164.37C843.21 1164.68 842.735 1164.92 842.183 1165.09C841.631 1165.24 841.041 1165.32 840.412 1165.32ZM860.325 1162.92C860.785 1162.92 861.23 1162.83 861.659 1162.65C862.089 1162.46 862.464 1162.2 862.786 1161.87C863.108 1161.51 863.361 1161.1 863.545 1160.62C863.745 1160.15 863.844 1159.62 863.844 1159.04V1158.99C863.844 1158.41 863.745 1157.88 863.545 1157.4C863.361 1156.91 863.108 1156.5 862.786 1156.16C862.464 1155.83 862.089 1155.56 861.659 1155.38C861.23 1155.2 860.785 1155.1 860.325 1155.1C859.85 1155.1 859.398 1155.2 858.968 1155.38C858.554 1155.55 858.186 1155.8 857.864 1156.14C857.542 1156.48 857.289 1156.89 857.105 1157.38C856.921 1157.86 856.829 1158.39 856.829 1158.99V1159.04C856.829 1159.62 856.921 1160.16 857.105 1160.65C857.289 1161.12 857.542 1161.53 857.864 1161.87C858.186 1162.2 858.554 1162.46 858.968 1162.65C859.398 1162.83 859.85 1162.92 860.325 1162.92ZM859.658 1165.34C858.938 1165.34 858.24 1165.2 857.565 1164.93C856.891 1164.65 856.293 1164.24 855.771 1163.71C855.25 1163.17 854.828 1162.51 854.506 1161.73C854.184 1160.95 854.023 1160.05 854.023 1159.04V1158.99C854.023 1157.98 854.177 1157.08 854.483 1156.3C854.805 1155.52 855.227 1154.86 855.748 1154.32C856.27 1153.79 856.868 1153.38 857.542 1153.1C858.232 1152.83 858.938 1152.69 859.658 1152.69C860.655 1152.69 861.483 1152.9 862.142 1153.33C862.802 1153.76 863.354 1154.26 863.798 1154.83V1148.3H866.581V1165.09H863.798V1163.06C863.354 1163.69 862.794 1164.23 862.119 1164.67C861.46 1165.12 860.64 1165.34 859.658 1165.34ZM878.379 1158.16C878.333 1157.72 878.233 1157.31 878.08 1156.92C877.926 1156.52 877.719 1156.19 877.459 1155.91C877.198 1155.62 876.884 1155.39 876.516 1155.22C876.163 1155.05 875.757 1154.97 875.297 1154.97C874.438 1154.97 873.725 1155.27 873.158 1155.86C872.606 1156.45 872.268 1157.21 872.146 1158.16H878.379ZM875.619 1165.36C874.745 1165.36 873.924 1165.21 873.158 1164.9C872.406 1164.6 871.747 1164.17 871.18 1163.61C870.628 1163.06 870.191 1162.4 869.869 1161.64C869.547 1160.85 869.386 1160 869.386 1159.06V1159.01C869.386 1158.14 869.531 1157.32 869.823 1156.55C870.114 1155.79 870.52 1155.12 871.042 1154.55C871.578 1153.97 872.207 1153.52 872.928 1153.2C873.648 1152.86 874.446 1152.69 875.32 1152.69C876.286 1152.69 877.129 1152.87 877.85 1153.22C878.586 1153.57 879.191 1154.05 879.667 1154.64C880.157 1155.24 880.525 1155.94 880.771 1156.74C881.016 1157.52 881.139 1158.35 881.139 1159.22C881.139 1159.34 881.131 1159.47 881.116 1159.61C881.116 1159.74 881.108 1159.87 881.093 1160H872.169C872.322 1161 872.713 1161.77 873.342 1162.3C873.986 1162.83 874.76 1163.09 875.665 1163.09C876.355 1163.09 876.953 1162.96 877.459 1162.72C877.965 1162.47 878.463 1162.11 878.954 1161.64L880.587 1163.09C880.004 1163.78 879.306 1164.33 878.494 1164.74C877.696 1165.16 876.738 1165.36 875.619 1165.36ZM890.99 1148.3H893.773V1165.09H890.99V1148.3ZM896.559 1154.3C897.97 1154.04 898.621 1153.32 898.514 1152.14H897.341V1148.99H900.4V1151.68C900.4 1152.97 900.101 1153.9 899.503 1154.48C898.905 1155.07 898.023 1155.4 896.858 1155.5L896.559 1154.3ZM911.085 1160C910.732 1159.87 910.311 1159.75 909.82 1159.66C909.345 1159.57 908.839 1159.52 908.302 1159.52C907.428 1159.52 906.746 1159.69 906.255 1160.03C905.764 1160.36 905.519 1160.82 905.519 1161.41V1161.45C905.519 1162.04 905.741 1162.48 906.186 1162.79C906.646 1163.09 907.206 1163.25 907.865 1163.25C908.325 1163.25 908.747 1163.19 909.13 1163.06C909.529 1162.94 909.874 1162.77 910.165 1162.56C910.456 1162.33 910.679 1162.06 910.832 1161.75C911.001 1161.43 911.085 1161.08 911.085 1160.69V1160ZM911.016 1165.09V1163.59C910.602 1164.08 910.073 1164.5 909.429 1164.83C908.785 1165.17 908.003 1165.34 907.083 1165.34C906.5 1165.34 905.948 1165.26 905.427 1165.09C904.906 1164.93 904.446 1164.7 904.047 1164.4C903.664 1164.07 903.349 1163.68 903.104 1163.22C902.874 1162.75 902.759 1162.2 902.759 1161.59V1161.54C902.759 1160.87 902.882 1160.29 903.127 1159.8C903.372 1159.29 903.71 1158.88 904.139 1158.55C904.584 1158.22 905.105 1157.97 905.703 1157.82C906.316 1157.65 906.976 1157.57 907.681 1157.57C908.417 1157.57 909.038 1157.61 909.544 1157.7C910.065 1157.8 910.564 1157.92 911.039 1158.07V1157.84C911.039 1157 910.778 1156.35 910.257 1155.91C909.751 1155.47 909.015 1155.24 908.049 1155.24C907.359 1155.24 906.746 1155.31 906.209 1155.45C905.672 1155.59 905.128 1155.77 904.576 1156L903.817 1153.77C904.492 1153.46 905.182 1153.22 905.887 1153.03C906.592 1152.85 907.443 1152.76 908.44 1152.76C910.249 1152.76 911.591 1153.21 912.465 1154.12C913.339 1155.01 913.776 1156.26 913.776 1157.89V1165.09H911.016ZM917.086 1152.94H919.869V1154.83C920.068 1154.54 920.283 1154.27 920.513 1154.02C920.758 1153.76 921.034 1153.53 921.341 1153.33C921.663 1153.13 922.008 1152.98 922.376 1152.87C922.759 1152.75 923.189 1152.69 923.664 1152.69C925.044 1152.69 926.11 1153.11 926.861 1153.95C927.612 1154.8 927.988 1155.93 927.988 1157.36V1165.09H925.205V1158.19C925.205 1157.24 924.975 1156.51 924.515 1156C924.07 1155.48 923.434 1155.22 922.606 1155.22C921.793 1155.22 921.134 1155.49 920.628 1156.02C920.122 1156.55 919.869 1157.28 919.869 1158.23V1165.09H917.086V1152.94ZM933.833 1168.84C933.25 1168.84 932.729 1168.77 932.269 1168.63C931.824 1168.51 931.387 1168.33 930.958 1168.1L931.901 1166.03C932.161 1166.17 932.422 1166.28 932.683 1166.35C932.959 1166.44 933.242 1166.49 933.534 1166.49C933.932 1166.49 934.262 1166.39 934.523 1166.19C934.783 1165.99 935.029 1165.62 935.259 1165.09L930.199 1152.94H933.166L936.616 1161.96L939.767 1152.94H942.665L937.835 1165.43C937.589 1166.06 937.336 1166.59 937.076 1167.02C936.815 1167.45 936.524 1167.79 936.202 1168.05C935.88 1168.33 935.527 1168.53 935.144 1168.65C934.76 1168.77 934.323 1168.84 933.833 1168.84Z" fill="#796743" />

<circle xmlns="http://www.w3.org/2000/svg" cx="1378.2" cy="1118.98" r="28.6971" fill="#796743" />

<path xmlns="http://www.w3.org/2000/svg" fill-rule="evenodd" clip-rule="evenodd" d="M1373.17 1128.57C1373.57 1128.93 1374.21 1128.93 1374.61 1128.57L1382.98 1120.79C1383.17 1120.61 1383.32 1120.41 1383.42 1120.18C1383.53 1119.95 1383.58 1119.7 1383.58 1119.46C1383.58 1119.21 1383.53 1118.96 1383.42 1118.73C1383.32 1118.5 1383.17 1118.3 1382.98 1118.12L1374.55 1110.29C1374.36 1110.11 1374.1 1110.01 1373.84 1110.01C1373.57 1110.01 1373.32 1110.1 1373.12 1110.28C1373.03 1110.36 1372.95 1110.46 1372.9 1110.58C1372.85 1110.69 1372.82 1110.82 1372.82 1110.94C1372.82 1111.07 1372.84 1111.2 1372.89 1111.31C1372.94 1111.43 1373.02 1111.53 1373.11 1111.62L1380.84 1118.79C1380.93 1118.88 1381 1118.98 1381.06 1119.09C1381.11 1119.21 1381.13 1119.33 1381.13 1119.46C1381.13 1119.58 1381.11 1119.7 1381.06 1119.82C1381 1119.93 1380.93 1120.04 1380.84 1120.12L1373.17 1127.24C1373.08 1127.32 1373.01 1127.43 1372.96 1127.54C1372.9 1127.65 1372.88 1127.78 1372.88 1127.9C1372.88 1128.03 1372.9 1128.15 1372.96 1128.26C1373.01 1128.38 1373.08 1128.48 1373.17 1128.57Z" fill="#EEE9DF" />

</svg>