<svg xmlns="http://www.w3.org/2000/svg" viewBox="0 0 700 520" role="img" aria-labelledby="title desc">
  <title id="title">Perfil organoleptic de la castanya</title>
  <desc id="desc">Grafic radial amb una il·lustracio vectorial de castanyes al centre.</desc>
  <defs>
    <linearGradient id="gridFill" x1="0" y1="0" x2="1" y2="1">
      <stop offset="0%" stop-color="#d7ccb3" stop-opacity="0.68"/>
      <stop offset="100%" stop-color="#c4b18b" stop-opacity="0.42"/>
    </linearGradient>
    <linearGradient id="shellBrownA" x1="0.2" y1="0" x2="0.8" y2="1">
      <stop offset="0%" stop-color="#5d1f11"/>
      <stop offset="30%" stop-color="#8c4026"/>
      <stop offset="58%" stop-color="#a45334"/>
      <stop offset="100%" stop-color="#4a170d"/>
    </linearGradient>
    <linearGradient id="shellBrownB" x1="0" y1="0.3" x2="1" y2="0.8">
      <stop offset="0%" stop-color="#6c2616"/>
      <stop offset="40%" stop-color="#9d4527"/>
      <stop offset="100%" stop-color="#472118"/>
    </linearGradient>
    <radialGradient id="shellHighlight" cx="35%" cy="25%" r="70%">
      <stop offset="0%" stop-color="#e3b29a" stop-opacity="0.85"/>
      <stop offset="35%" stop-color="#c67a5d" stop-opacity="0.35"/>
      <stop offset="100%" stop-color="#ffffff" stop-opacity="0"/>
    </radialGradient>
    <linearGradient id="peeledChestnut" x1="0.2" y1="0" x2="0.8" y2="1">
      <stop offset="0%" stop-color="#fff0b5"/>
      <stop offset="45%" stop-color="#ffd972"/>
      <stop offset="100%" stop-color="#e7af43"/>
    </linearGradient>
    <linearGradient id="innerShell" x1="0" y1="0" x2="1" y2="1">
      <stop offset="0%" stop-color="#f6cca4"/>
      <stop offset="55%" stop-color="#de8d63"/>
      <stop offset="100%" stop-color="#a35637"/>
    </linearGradient>
    <filter id="softShadow" x="-30%" y="-30%" width="160%" height="180%">
      <feDropShadow dx="0" dy="12" stdDeviation="12" flood-color="#8f6f41" flood-opacity="0.22"/>
    </filter>
  </defs>
  <rect width="700" height="520" fill="#f4f1e6"/>

  <polygon points="350,70 515,165 515,355 350,450 185,355 185,165" fill="url(#gridFill)" stroke="#aa8d53" stroke-width="2"/>
  <polygon points="350,120 472,190 472,330 350,400 228,330 228,190" fill="none" stroke="#b69a61" stroke-width="1.5"/>
  <polygon points="350,165 435,214 435,306 350,355 265,306 265,214" fill="none" stroke="#b69a61" stroke-width="1.5"/>
  <line x1="350" y1="70" x2="350" y2="450" stroke="#b69a61" stroke-width="1.5"/>
  <line x1="185" y1="165" x2="515" y2="355" stroke="#b69a61" stroke-width="1.5"/>
  <line x1="185" y1="355" x2="515" y2="165" stroke="#b69a61" stroke-width="1.5"/>

  <g filter="url(#softShadow)">
    <ellipse cx="352" cy="312" rx="144" ry="24" fill="#a48754" fill-opacity="0.18"/>

    <g transform="translate(246 126)">
      <path d="M20 126C20 53 72 0 141 0c70 0 121 53 121 126 0 71-49 106-121 106S20 199 20 126Z" fill="url(#shellBrownA)"/>
      <path d="M142 4c10 7 17 18 16 28-8-5-17-5-28 0 0-12 5-22 12-28Z" fill="#dbbf7a"/>
      <path d="M45 126c0-55 37-98 95-116-34 19-54 62-54 115 0 48 17 80 43 104-49-8-84-46-84-103Z" fill="#bf6c4d" fill-opacity="0.38"/>
      <ellipse cx="175" cy="70" rx="56" ry="34" fill="url(#shellHighlight)"/>
      <path d="M69 49c22 21 35 58 35 108" stroke="#6f2618" stroke-opacity="0.35" stroke-width="4" fill="none" stroke-linecap="round"/>
      <path d="M105 32c18 23 26 61 24 114" stroke="#6f2618" stroke-opacity="0.28" stroke-width="3.4" fill="none" stroke-linecap="round"/>
      <path d="M152 24c11 22 15 52 13 92" stroke="#6f2618" stroke-opacity="0.26" stroke-width="3" fill="none" stroke-linecap="round"/>
    </g>

    <g transform="translate(395 162)">
      <path d="M8 102C8 45 51 0 113 0c66 0 114 46 114 108 0 59-46 104-111 104C50 212 8 168 8 102Z" fill="url(#shellBrownB)"/>
      <ellipse cx="154" cy="74" rx="48" ry="32" fill="url(#shellHighlight)" opacity="0.9"/>
      <path d="M145 76c31 8 50 32 44 67-5 28-27 49-57 56-17 4-31-1-37-15 13-16 20-34 22-54 2-21 12-41 28-54Z" fill="#3b241d" fill-opacity="0.78"/>
      <path d="M170 94c17 7 26 22 22 41-4 18-17 31-34 38" stroke="#8f6544" stroke-opacity="0.42" stroke-width="3" fill="none" stroke-linecap="round"/>
    </g>

    <g transform="translate(228 251)">
      <path d="M12 84C12 36 52 0 104 0c49 0 92 35 92 94 0 50-38 83-98 83-57 0-98-37-98-93Z" fill="url(#peeledChestnut)"/>
      <ellipse cx="73" cy="44" rx="41" ry="21" fill="#fff8dc" fill-opacity="0.42"/>
      <path d="M40 31c-8 28-8 73 3 120" stroke="#d4a247" stroke-opacity="0.38" stroke-width="3.5" fill="none" stroke-linecap="round"/>
      <path d="M66 20c-8 35-6 84 3 138" stroke="#d4a247" stroke-opacity="0.28" stroke-width="3.2" fill="none" stroke-linecap="round"/>
      <path d="M93 18c-10 33-7 80 2 135" stroke="#d4a247" stroke-opacity="0.24" stroke-width="3" fill="none" stroke-linecap="round"/>
      <path d="M118 28c-9 27-8 72 3 118" stroke="#d4a247" stroke-opacity="0.25" stroke-width="2.8" fill="none" stroke-linecap="round"/>
    </g>

    <g transform="translate(334 206)">
      <path d="M45 165C22 132 9 92 7 58c-1-17 7-29 22-36 32-14 84-17 125-6 26 7 42 22 43 44 1 22-10 55-30 93-23 46-56 72-95 74-28 2-45-5-57-21Z" fill="#7d3c22"/>
      <path d="M31 60c10 45 28 89 53 126 12 17 26 28 43 34-36 0-57-9-72-30C30 155 15 110 13 67c0-19 7-29 18-34Z" fill="#c48a62" fill-opacity="0.36"/>
      <path d="M27 67c26-15 71-21 114-15 29 4 49 13 60 28-35-8-82-9-122-3-20 3-37 0-52-10Z" fill="#cf8d62" fill-opacity="0.55"/>
      <path d="M65 96c28-8 60-8 98 0" stroke="#ad603f" stroke-width="4" stroke-opacity="0.65" fill="none" stroke-linecap="round"/>
      <path d="M54 119c33-13 76-14 123-5" stroke="#b76f4c" stroke-width="4" stroke-opacity="0.55" fill="none" stroke-linecap="round"/>
      <path d="M45 143c33-13 76-15 129-8" stroke="#bb7955" stroke-width="4" stroke-opacity="0.5" fill="none" stroke-linecap="round"/>
      <path d="M41 171c29-11 68-14 117-11" stroke="#ba7a58" stroke-width="4" stroke-opacity="0.46" fill="none" stroke-linecap="round"/>
      <path d="M48 33c15 22 20 47 16 74" stroke="#f1c78e" stroke-opacity="0.34" stroke-width="3.5" fill="none" stroke-linecap="round"/>
      <path d="M155 25c-8 24-22 48-42 71" stroke="#f1c78e" stroke-opacity="0.26" stroke-width="3.2" fill="none" stroke-linecap="round"/>
      <path d="M22 62c-3-16 4-25 20-29 19-5 38-2 51 7-18 6-33 19-43 38-11-1-20-6-28-16Z" fill="#d6a06d" fill-opacity="0.42"/>
    </g>

    <g transform="translate(66 373) rotate(-12)">
      <path d="M0 48C10 24 31 8 59 0c18 3 26 13 24 30-2 18-14 31-37 39C28 73 12 66 0 48Z" fill="#b96c4d"/>
      <path d="M7 46c12-6 23-15 32-29 9 12 16 24 18 38-16 8-33 6-50-9Z" fill="#7c3f2a" fill-opacity="0.72"/>
    </g>

    <g transform="translate(226 443) rotate(-4)">
      <path d="M0 18C16 2 35-2 57 7 51 24 38 34 17 38 8 35 2 28 0 18Z" fill="#c98254"/>
      <path d="M14 13c11 1 22 5 32 11-8 7-18 11-30 12-6-6-6-14-2-23Z" fill="#8c4c31" fill-opacity="0.62"/>
    </g>
  </g>

  <circle cx="350" cy="70" r="6.5" fill="#f4f1e6" stroke="#aa8d53" stroke-width="3"/>
  <circle cx="515" cy="165" r="6.5" fill="#f4f1e6" stroke="#aa8d53" stroke-width="3"/>
  <circle cx="515" cy="355" r="6.5" fill="#f4f1e6" stroke="#aa8d53" stroke-width="3"/>
  <circle cx="350" cy="450" r="6.5" fill="#f4f1e6" stroke="#aa8d53" stroke-width="3"/>
  <circle cx="185" cy="355" r="6.5" fill="#f4f1e6" stroke="#aa8d53" stroke-width="3"/>
  <circle cx="185" cy="165" r="6.5" fill="#f4f1e6" stroke="#aa8d53" stroke-width="3"/>

  <text x="350" y="38" text-anchor="middle" font-family="Montserrat, Arial, sans-serif" font-size="18" font-weight="700" fill="#8b7445">DOLCOR</text>
  <text x="600" y="185" text-anchor="middle" font-family="Montserrat, Arial, sans-serif" font-size="18" font-weight="700" fill="#8b7445">CARNOSITAT</text>
  <text x="600" y="375" text-anchor="middle" font-family="Montserrat, Arial, sans-serif" font-size="18" font-weight="700" fill="#8b7445">FACILITAT</text>
  <text x="600" y="398" text-anchor="middle" font-family="Montserrat, Arial, sans-serif" font-size="18" font-weight="700" fill="#8b7445">DE PELAT</text>
  <text x="350" y="496" text-anchor="middle" font-family="Montserrat, Arial, sans-serif" font-size="18" font-weight="700" fill="#8b7445">INTENSITAT D'AROMA</text>
  <text x="112" y="375" text-anchor="middle" font-family="Montserrat, Arial, sans-serif" font-size="18" font-weight="700" fill="#8b7445">ABSENCIA</text>
  <text x="112" y="398" text-anchor="middle" font-family="Montserrat, Arial, sans-serif" font-size="18" font-weight="700" fill="#8b7445">DE DEFECTES</text>
  <text x="115" y="185" text-anchor="middle" font-family="Montserrat, Arial, sans-serif" font-size="18" font-weight="700" fill="#8b7445">VERSATILITAT</text>
</svg>
